<svg xmlns="http://www.w3.org/2000/svg" width="24.258" height="25" viewBox="0 0 24.258 25">
  <g id="bank-transfer-logo" transform="translate(-0.475)">
    <g id="Group_3755" data-name="Group 3755" transform="translate(0.475 14.458)">
      <g id="Group_3754" data-name="Group 3754">
        <path id="Path_3412" data-name="Path 3412" d="M4.677,21.393a1.251,1.251,0,0,0,.767-1.282c0-.645-.392-1.605-1.927-1.605H.475v6.26H3.126c1.282,0,1.622-.218,1.979-.569a1.818,1.818,0,0,0,.539-1.288A1.458,1.458,0,0,0,4.677,21.393Zm-2.945-1.8h1.5c.592,0,.959.156.959.67,0,.5-.409.7-.925.7H1.731Zm1.6,4.1h-1.6V22.011H3.4c.472,0,.941.212.941.759C4.336,23.4,3.97,23.685,3.334,23.685Z" transform="translate(-0.475 -18.506)"/>
      </g>
    </g>
    <g id="Group_3757" data-name="Group 3757" transform="translate(0.476 21.709)">
      <g id="Group_3756" data-name="Group 3756">
        <path id="Path_3413" data-name="Path 3413" d="M.476,27.788v.569h.969V31h.668V28.357h.971v-.569Z" transform="translate(-0.476 -27.788)"/>
      </g>
    </g>
    <g id="Group_3759" data-name="Group 3759" transform="translate(19.198 14.457)">
      <g id="Group_3758" data-name="Group 3758">
        <path id="Path_3414" data-name="Path 3414" d="M27.273,21.069l2.555-2.564H28.137L25.748,21.05V18.505H24.44v6.259h1.308V22.646l.61-.628,1.934,2.746h1.683Z" transform="translate(-24.44 -18.505)"/>
      </g>
    </g>
    <g id="Group_3761" data-name="Group 3761" transform="translate(6.023 14.457)">
      <g id="Group_3760" data-name="Group 3760">
        <path id="Path_3415" data-name="Path 3415" d="M11.315,18.505H9.807l-2.23,6.259H8.954l.435-1.289H11.7l.4,1.288h1.42ZM9.737,22.393l.8-2.475h.018l.775,2.475Z" transform="translate(-7.577 -18.505)"/>
      </g>
    </g>
    <g id="Group_3763" data-name="Group 3763" transform="translate(7.079)">
      <g id="Group_3762" data-name="Group 3762">
        <path id="Path_3416" data-name="Path 3416" d="M17.445,2.191A7.851,7.851,0,0,0,16.112.922,6.14,6.14,0,0,0,15.3.4a4.981,4.981,0,0,0-.964-.4,4.688,4.688,0,0,0,.149,1.034,5.947,5.947,0,0,0,.288.9c-.277.081-.613.2-.991.342-.245.109-.513.208-.783.354a8.245,8.245,0,0,0-.834.469c-.287.162-.554.391-.834.59a8.612,8.612,0,0,0-.763.729,5.419,5.419,0,0,0-.642.828c-.09.146-.194.281-.269.43s-.141.3-.208.449a4.234,4.234,0,0,0-.3.87,3.528,3.528,0,0,0-.154.8,5.18,5.18,0,0,0-.061.673c.006.2.011.373.016.517.009.284.011.445.011.445s.03-.16.082-.439c.026-.138.058-.3.095-.5a5.008,5.008,0,0,1,.2-.619,3.2,3.2,0,0,1,.3-.693,3.8,3.8,0,0,1,.434-.7l.259-.342c.091-.112.209-.208.309-.312a4.392,4.392,0,0,1,.68-.565,7.412,7.412,0,0,1,.749-.454c.275-.11.517-.248.788-.327a6.331,6.331,0,0,1,.76-.229c.241-.07.484-.1.7-.147.136-.02.261-.036.381-.051-.014.036-.029.07-.041.107a6.415,6.415,0,0,0-.287,1.068c-.03.19-.055.382-.075.578a4.337,4.337,0,0,0,0,.623,4.6,4.6,0,0,0,.565-.263c.17-.1.336-.2.495-.309a6.353,6.353,0,0,0,.855-.7A8.021,8.021,0,0,0,17.5,3.483l.046-.077A1.052,1.052,0,0,0,17.445,2.191Z" transform="translate(-8.929)"/>
      </g>
    </g>
    <g id="Group_3765" data-name="Group 3765" transform="translate(3.483 21.709)">
      <g id="Group_3764" data-name="Group 3764">
        <path id="Path_3417" data-name="Path 3417" d="M6.866,30.27c0-.6-.144-.7-.407-.812a.765.765,0,0,0,.5-.765.9.9,0,0,0-1.009-.905H4.325v3.205h.658V29.739h.691c.5,0,.523.17.523.606a2.14,2.14,0,0,0,.07.647h.741v-.084C6.866,30.855,6.866,30.738,6.866,30.27Zm-1.1-1.07H4.982v-.859h.834c.392,0,.469.248.469.42C6.284,29.076,6.116,29.2,5.766,29.2Z" transform="translate(-4.325 -27.787)"/>
      </g>
    </g>
    <g id="Group_3767" data-name="Group 3767" transform="translate(16.056 21.709)">
      <g id="Group_3766" data-name="Group 3766" transform="translate(0)">
        <path id="Path_3418" data-name="Path 3418" d="M22.7,28.357v-.569H20.419V31h.67V29.647H22.5V29.08H21.089v-.723Z" transform="translate(-20.419 -27.788)"/>
      </g>
    </g>
    <g id="Group_3769" data-name="Group 3769" transform="translate(18.788 21.711)">
      <g id="Group_3768" data-name="Group 3768">
        <path id="Path_3419" data-name="Path 3419" d="M24.571,30.427V29.6h1.563v-.567H24.571v-.673h1.7V27.79H23.915V31h2.434v-.569Z" transform="translate(-23.915 -27.79)"/>
      </g>
    </g>
    <g id="Group_3771" data-name="Group 3771" transform="translate(12.912 21.623)">
      <g id="Group_3770" data-name="Group 3770">
        <path id="Path_3420" data-name="Path 3420" d="M18.189,29.143l-.78-.192c-.134-.032-.341-.086-.341-.336,0-.29.305-.383.559-.383.586,0,.64.338.658.481h.641c0-.393-.267-1.035-1.25-1.035-1.041,0-1.232.629-1.232.986,0,.706.5.824,1.018.943l.343.081c.338.082.58.148.58.4,0,.335-.354.413-.669.413-.586,0-.676-.339-.68-.518h-.641c0,.4.2,1.072,1.37,1.072.28,0,1.263-.087,1.263-1.049C19.027,29.43,18.625,29.249,18.189,29.143Z" transform="translate(-16.395 -27.678)"/>
      </g>
    </g>
    <g id="Group_3773" data-name="Group 3773" transform="translate(21.769 21.709)">
      <g id="Group_3772" data-name="Group 3772">
        <path id="Path_3421" data-name="Path 3421" d="M30.271,30.27c0-.6-.145-.7-.407-.812a.768.768,0,0,0,.5-.765.9.9,0,0,0-1.01-.905h-1.62v3.205h.658V29.739h.691c.495,0,.523.17.523.606a2.109,2.109,0,0,0,.071.647h.739v-.084C30.271,30.855,30.271,30.738,30.271,30.27Zm-1.1-1.07h-.784v-.859h.833c.394,0,.47.248.47.42C29.691,29.076,29.522,29.2,29.172,29.2Z" transform="translate(-27.731 -27.787)"/>
      </g>
    </g>
    <g id="Group_3775" data-name="Group 3775" transform="translate(12.745 14.459)">
      <g id="Group_3774" data-name="Group 3774">
        <path id="Path_3422" data-name="Path 3422" d="M20.059,18.508v4.358h-.016l-2.485-4.358H16.18v6.259H17.4l0-4.463h.016l2.555,4.463h1.306v-6.26Z" transform="translate(-16.18 -18.508)"/>
      </g>
    </g>
    <g id="Group_3777" data-name="Group 3777" transform="translate(6.37 21.709)">
      <g id="Group_3776" data-name="Group 3776">
        <path id="Path_3423" data-name="Path 3423" d="M9.937,27.788H9.163L8.02,30.993h.706l.223-.662h1.183l.206.662h.728Zm-.809,1.991.412-1.267h.006l.4,1.267Z" transform="translate(-8.02 -27.788)"/>
      </g>
    </g>
    <g id="Group_3779" data-name="Group 3779" transform="translate(9.816 21.709)">
      <g id="Group_3778" data-name="Group 3778">
        <path id="Path_3424" data-name="Path 3424" d="M14.42,27.788v2.231h-.008l-1.274-2.231h-.7v3.205h.624V28.707h.01l1.308,2.287h.671V27.788Z" transform="translate(-12.432 -27.788)"/>
      </g>
    </g>
    <g id="Group_3781" data-name="Group 3781" transform="translate(8.697 3.978)">
      <g id="Group_3780" data-name="Group 3780">
        <path id="Path_3425" data-name="Path 3425" d="M19.56,5.536c-.015-.283-.027-.444-.027-.444s-.023.16-.07.441c-.023.138-.048.306-.079.5a5,5,0,0,1-.179.624,3.075,3.075,0,0,1-.277.7,3.753,3.753,0,0,1-.412.716c-.081.115-.165.232-.248.351s-.2.213-.3.321a4.31,4.31,0,0,1-.663.584,7.146,7.146,0,0,1-.735.476c-.27.118-.509.263-.777.35a6.04,6.04,0,0,1-.753.252c-.238.078-.479.116-.69.167-.135.024-.261.045-.38.063.011-.037.026-.071.038-.108a6.56,6.56,0,0,0,.255-1.077c.024-.191.042-.384.056-.58a4.4,4.4,0,0,0-.012-.622,4.358,4.358,0,0,0-.557.279c-.168.1-.328.212-.485.323a6.381,6.381,0,0,0-.831.729,8.017,8.017,0,0,0-1.257,1.7l-.045.077a1.051,1.051,0,0,0,.139,1.212A7.93,7.93,0,0,0,12.638,13.8a5.894,5.894,0,0,0,.831.495,4.767,4.767,0,0,0,.975.374,5.035,5.035,0,0,0-.18-1.028,5.923,5.923,0,0,0-.316-.887c.275-.09.605-.213.98-.371.241-.116.505-.223.772-.377a7.69,7.69,0,0,0,.816-.493c.281-.17.542-.408.818-.615a8.736,8.736,0,0,0,.741-.751,5.416,5.416,0,0,0,.616-.846c.086-.149.184-.288.255-.439s.131-.306.194-.455a4.292,4.292,0,0,0,.277-.878,3.555,3.555,0,0,0,.13-.8,4.962,4.962,0,0,0,.042-.674C19.577,5.854,19.568,5.68,19.56,5.536Z" transform="translate(-11 -5.092)"/>
      </g>
    </g>
  </g>
</svg>
