<?xml version="1.0" encoding="utf-8"?>
<!-- Generator: Adobe Illustrator 17.0.0, SVG Export Plug-In . SVG Version: 6.00 Build 0)  -->
<!DOCTYPE svg PUBLIC "-//W3C//DTD SVG 1.1//EN" "http://www.w3.org/Graphics/SVG/1.1/DTD/svg11.dtd">
<svg version="1.1" id="Layer_1" xmlns="http://www.w3.org/2000/svg" xmlns:xlink="http://www.w3.org/1999/xlink" x="0px" y="0px"
	 width="1802.481px" height="639.879px" viewBox="0 0 1802.481 639.879" enable-background="new 0 0 1802.481 639.879"
	 xml:space="preserve">
<g>
	<polygon fill="#1D4595" points="64.67,-824.959 1802.785,-824.959 1802.785,-185.08 0,-185.08 0,-824.959 	"/>
	<path fill="#1D4595" d="M839.067-505.02"/>
</g>
<g>
	<path fill="#FFFFFF" d="M146.138-544.901h21.389v-18.524h-21.389V-544.901z M857.72-722.258h-21.328v18.393h21.328V-722.258z
		 M419.682-558.108h21.3v-18.332h-21.3V-558.108z M488.631-612.238C488.631-612.007,488.631-612.391,488.631-612.238
		L488.631-612.238z M108.996-544.901h21.427v-18.524h-21.427V-544.901z M418.836-681.857c-13.103,0-25.899,2.728-36.066,7.71v35.867
		h21.306v-26.908c0,0,5.728-3.171,15.836-3.171c21.838,0,45.048,20.253,45.048,57.448l0,0c0,0.396-0.109,3.117-0.598,5.279h-98.52
		l0.17-4.884c0-41.964-28.741-71.342-69.855-71.342c-13.098,0-25.844,2.728-36.066,7.71v35.867h21.323v-26.908
		c0,0,5.685-3.171,15.841-3.171c21.816,0,44.988,20.253,44.988,57.448l-0.065,5.279H238.803v-84.406h-19.314
		c-52.001,0-53.663,26.293-53.663,57.295v27.556c0,15.171-5.498,18.112-13.762,18.112h-16.62c-10.628,0-28.252-1.711-28.252-39.665
		c0-32.094,14.31-46.151,42.766-45.915v-12.571c-21.932,0.033-35.638,4.138-48.5,16.22c-10.936,10.469-15.594,24.703-15.594,42.623
		c0,39.375,17.608,52.681,41.63,52.681h30.003c19.089,0,29.635-11.88,29.635-33.521v-28.302c0-26.607,4.11-41.125,30.277-41.125
		v84.505h268.704c2.206-9.092,2.518-20.093,2.518-20.093C487.813-653.132,459.375-681.857,418.836-681.857z M805.435-657.495
		c0,20.856,14.711,34.326,39.539,34.326h15.199v1.861c0,10.396-4.966,15.676-14.184,15.676h-64.522
		c-26.601,0-36.538-7.336-36.538-28.685v-41.219h-21.323v44.555c0,29.98,14.02,38.836,54.536,38.836h72.862
		c9.893,0,17.317-3.391,22.634-10.441c4.889-5.981,7.265-13.69,7.265-22.705v-64.746h-33.108
		C818.889-690.038,805.435-679.212,805.435-657.495z M859.531-676.65v41.202h-8.856c-6.612,0-24.324-1.827-24.324-21.086
		c0-13.164,7.605-20.116,23.325-20.116H859.531z M509.158-592.145h21.388v-142.123h-21.388V-592.145z M1166.787-663.871
		c-19.402-17.148-57.285-11.056-69.312-8.784v67.023h-20.269c0.439-1.865,0.801-6.529,0.801-6.529
		c2.854-35.512-18.162-55.441-47.704-55.441c-22.881,0-43.644,14.47-58.558,34.481l-3.072,4.752v-35.183h-21.41v38.453
		c0,13.394-4.521,19.468-14.354,19.468h-10.096v-69.904h-21.339v84.127c0,12.033,0.065,18.255-3.665,25.13
		c-1.898,3.446-5.547,6.673-9.75,7.907c0,1.432,0,4.499,0,6.683c24.286-0.526,34.755-12.626,34.755-40.456h207.409
		c28.357,0,48.176-16.4,48.176-41.509C1178.397-646.213,1175.248-656.391,1166.787-663.871z M1057.024-613.363
		c0,0.203-0.878,7.731-0.878,7.731h-82.843l1.393-2.639c15.583-30.234,34.941-44.209,56.561-43.222
		C1050.144-650.75,1058.747-634.729,1057.024-613.363z M1126.589-605.631h-7.781v-54.667c0,0,2.48-0.845,7.682-0.845
		c19.676,0,30.606,10.315,30.606,27.9C1157.097-615.975,1144.257-605.631,1126.589-605.631z M636.067-592.145h21.449v-142.123
		h-21.449V-592.145z M594.229-625.51c0,16.554-7.78,19.879-14.381,19.879h-7.402v-69.904h-21.372v84.127
		c0,12.033,0.061,18.255-3.665,25.13c-1.811,3.446-5.537,6.673-9.773,7.907c0,1.432,0,4.499,0,6.683
		c24.308-0.526,34.81-12.626,34.81-40.456h12.609c10.102,0,17.641-3.549,23.105-10.584c4.982-6.228,7.407-14.068,7.407-23.348
		c0,0,0-102.256,0-108.191h-21.339C594.229-728.332,594.229-625.51,594.229-625.51z"/>
	<g>
		<path fill="#FFFFFF" d="M1267.429-740.08v471.399h452.063V-740.08H1267.429z M1688.381-301.096h-389.906v-406.5h389.906V-301.096z
			"/>
		<path fill="#FFFFFF" d="M1416.347-610.038v77.137l-68.577,41.383v92.664l76.062,46.332h0.087c0.208,0,69.894-40.986,69.894-40.986
			l67.303,40.986l77.927-46.924v-92.072l-68.631-41.383v-77.137l-76.599-46.211L1416.347-610.038z M1416.347-495.447v55.561
			l45.948,27.709l-37.696,22.76l-45.707-27.676v-55.781L1416.347-495.447z M1493.812-619.211l45.761,27.682c0,0,0,132.582,0,132.967
			c-0.329,0.185-45.443,27.326-45.761,27.578c-0.318-0.252-46.058-27.393-46.321-27.578c0-0.385,0-132.967,0-132.967
			L1493.812-619.211z M1570.411-439.797v-0.088v-55.561l37.619,22.573v55.781l-45.915,27.676l-37.619-22.76L1570.411-439.797z"/>
	</g>
	<g>
		<rect x="226.561" y="-443.21" fill="#FFFFFF" width="21.328" height="142.113"/>
		<path fill="#FFFFFF" d="M139.564-436.243L86.741-301.096h20.017l13.662-37.873h51.238l12.395,37.873h24.708l-48.773-135.147
			H139.564z M147.202-412.45l19.968,60.027h-41.773L147.202-412.45z"/>
		<path fill="#FFFFFF" d="M774.762-436.243v135.147h40.335c29.636,0,48.89-15.508,48.89-39.223
			c0-19.851-17.218-31.725-33.449-32.461v-3.369c4.247-1.162,25.098-8.273,25.098-32.471c0-17.932-14.008-27.623-36.532-27.623
			H774.762z M796.073-422.942h15.572c13.838,0,22.102,7.332,22.102,19.512c0,14.268-11.33,25-27.566,25h-10.107V-422.942z
			 M796.073-365.043h18.524c17.575,0,28.006,9.352,28.006,25.021c0,15.451-10.931,25.428-27.825,25.428h-18.706V-365.043z"/>
		<polygon fill="#FFFFFF" points="1095.335,-443.21 1095.335,-301.096 1116.679,-301.096 1116.679,-357.36 1156.603,-299.461 
			1177.53,-307.133 1140.504,-356.45 1168.871,-391.379 1149.744,-400.85 1116.679,-357.723 1116.679,-443.21 		"/>
		<path fill="#FFFFFF" d="M1008.3-385.499l-2.974,3.336v-14.596H984.08v95.662h21.399v-57.318c0-16.143,9.306-26.645,23.803-26.645
			c13.312,0,21.234,8.91,21.234,24.889v59.074h21.378v-62.135c0-23.814-10.931-35.809-32.362-35.809
			C1027.186-399.04,1016.025-394.245,1008.3-385.499z"/>
		<rect x="683.25" y="-396.758" fill="#FFFFFF" width="21.35" height="95.662"/>
		<rect x="683.25" y="-431.215" fill="#FFFFFF" width="21.35" height="18.426"/>
		<rect x="527.199" y="-431.215" fill="#FFFFFF" width="21.328" height="18.469"/>
		<path fill="#FFFFFF" d="M572.056-443.21v142.113h21.234v-57.318c0-16.143,9.433-26.645,23.857-26.645
			c13.422,0,21.246,8.91,21.246,24.889v59.074h21.383v-62.135c0-23.814-10.804-35.809-32.313-35.809
			c-12.33,0-23.468,4.795-31.249,13.541l-3.034,3.336v-61.047H572.056z"/>
		<path fill="#FFFFFF" d="M317.963-436.243v135.147h21.361v-57.209h17.877c0,0,26.749,56.979,27.863,59.348
			c2.178-0.406,20.691-3.951,24.428-4.652c-2.135-4.027-31.172-58.678-31.172-58.678l1.443-0.834
			c14.601-9.043,21.607-21.619,21.607-38.729c0-21.553-15.287-34.393-40.9-34.393H317.963z M339.324-422.942h17.603
			c14.436,0,23.056,9.262,23.056,23.496c0,12.861-8.143,27.742-26.063,27.742h-14.596V-422.942z"/>
		<path fill="#FFFFFF" d="M527.199-396.758v96.385c0,10.854-1.662,20.324-3.66,25.143c-1.679,3.895-5.553,6.715-9.767,7.867
			c0,1.471,0,4.533,0,6.75c24.352-0.57,34.755-12.631,34.755-40.482v-95.662H527.199z"/>
		<path fill="#FFFFFF" d="M923.416-399.04c-13.333,0-23.984,3.818-34.102,12.082c1.256,2.008,4.856,7.494,6.167,9.471
			c7.66-6.354,15.331-9.328,24.697-9.328c9.547,0,16.461,7.309,17.81,16.779l0.242,1.592l-22.683,7.012
			c-23.188,6.771-34.009,17.756-34.009,34.414c0,16.34,10.722,28.291,25.525,28.291c20.226,0,31.814-18.908,31.814-18.908v16.539
			h21.761l0,0v-62.893C960.64-387.254,948.085-399.04,923.416-399.04z M929.649-319.588c-3.896,4.379-8.714,6.836-13.487,6.836
			c-7.369,0-13.092-7.318-13.092-16.525c0-12.051,6.634-20.313,19.819-24.56c0,0.066,14.003-4.643,14.003-4.643l2.271-0.834
			l0.175,2.316C940.788-335.336,933.885-324.286,929.649-319.588z"/>
		<path fill="#FFFFFF" d="M466.513-399.04c-13.361,0-23.967,3.818-34.135,12.082c1.256,2.008,4.862,7.494,6.184,9.471
			c7.665-6.354,15.369-9.328,24.729-9.328c9.663,0,16.483,7.309,17.855,16.779l0.247,1.592l-22.766,7.012
			c-23.149,6.771-33.904,17.756-33.904,34.414c0,16.34,10.672,28.313,25.449,28.313c20.247,0,31.808-18.93,31.808-18.93v16.539
			h21.778l0,0v-62.893C503.759-387.254,491.227-399.04,466.513-399.04z M472.807-319.588c-4.011,4.379-8.741,6.836-13.476,6.836
			c-7.418,0-13.18-7.318-13.18-16.525c0-12.051,6.683-20.313,19.879-24.539c-0.022,0.045,14.024-4.664,14.024-4.664l2.217-0.834
			l0.17,2.316C483.907-335.336,476.966-324.262,472.807-319.588z"/>
	</g>
</g>
<g>
	<path fill="#1D4595" d="M146.138,280.058h21.389v-18.524h-21.389V280.058z M857.72,102.7h-21.328v18.393h21.328V102.7z
		 M419.682,266.851h21.3v-18.332h-21.3V266.851z M488.631,212.721C488.631,212.951,488.631,212.567,488.631,212.721L488.631,212.721
		z M108.996,280.058h21.427v-18.524h-21.427V280.058z M418.836,143.102c-13.103,0-25.899,2.728-36.066,7.71v35.867h21.306V159.77
		c0,0,5.728-3.171,15.836-3.171c21.838,0,45.048,20.253,45.048,57.448l0,0c0,0.395-0.109,3.117-0.598,5.279h-98.52l0.17-4.884
		c0-41.964-28.741-71.342-69.855-71.342c-13.098,0-25.844,2.728-36.066,7.71v35.867h21.323V159.77c0,0,5.685-3.171,15.841-3.171
		c21.816,0,44.988,20.253,44.988,57.448l-0.065,5.279H238.803v-84.406h-19.314c-52.001,0-53.663,26.293-53.663,57.295v27.556
		c0,15.171-5.498,18.112-13.762,18.112h-16.62c-10.628,0-28.252-1.711-28.252-39.665c0-32.094,14.31-46.151,42.766-45.915v-12.571
		c-21.932,0.033-35.638,4.138-48.5,16.22c-10.936,10.469-15.594,24.703-15.594,42.623c0,39.375,17.608,52.681,41.63,52.681h30.003
		c19.089,0,29.635-11.88,29.635-33.52v-28.302c0-26.606,4.11-41.125,30.277-41.125v84.505h268.704
		c2.206-9.092,2.518-20.093,2.518-20.093C487.813,171.826,459.375,143.102,418.836,143.102z M805.435,167.464
		c0,20.855,14.711,34.326,39.539,34.326h15.199v1.861c0,10.396-4.966,15.676-14.184,15.676h-64.522
		c-26.601,0-36.538-7.336-36.538-28.686v-41.219h-21.323v44.555c0,29.98,14.02,38.836,54.536,38.836h72.862
		c9.893,0,17.317-3.391,22.634-10.442c4.889-5.98,7.265-13.689,7.265-22.705v-64.746h-33.108
		C818.889,134.921,805.435,145.746,805.435,167.464z M859.531,148.309v41.202h-8.856c-6.612,0-24.324-1.827-24.324-21.086
		c0-13.164,7.605-20.116,23.325-20.116H859.531z M509.158,232.814h21.388V90.69h-21.388V232.814z M1166.787,161.088
		c-19.402-17.148-57.285-11.056-69.312-8.784v67.023h-20.269c0.439-1.865,0.801-6.529,0.801-6.529
		c2.854-35.512-18.162-55.441-47.704-55.441c-22.881,0-43.644,14.47-58.558,34.48l-3.072,4.752v-35.183h-21.41v38.453
		c0,13.393-4.521,19.468-14.354,19.468h-10.096v-69.904h-21.339v84.127c0,12.033,0.065,18.255-3.665,25.13
		c-1.898,3.446-5.547,6.673-9.75,7.907c0,1.432,0,4.499,0,6.683c24.286-0.526,34.755-12.626,34.755-40.456h207.409
		c28.357,0,48.176-16.4,48.176-41.509C1178.397,178.745,1175.248,168.567,1166.787,161.088z M1057.024,211.596
		c0,0.203-0.878,7.731-0.878,7.731h-82.843l1.393-2.639c15.583-30.234,34.941-44.209,56.561-43.222
		C1050.144,174.208,1058.747,190.23,1057.024,211.596z M1126.589,219.327h-7.781V164.66c0,0,2.48-0.845,7.682-0.845
		c19.676,0,30.606,10.314,30.606,27.9C1157.097,208.983,1144.257,219.327,1126.589,219.327z M636.067,232.814h21.449V90.69h-21.449
		V232.814z M594.229,199.448c0,16.554-7.78,19.879-14.381,19.879h-7.402v-69.904h-21.372v84.127c0,12.033,0.061,18.255-3.665,25.13
		c-1.811,3.446-5.537,6.673-9.773,7.907c0,1.432,0,4.499,0,6.683c24.308-0.526,34.81-12.626,34.81-40.456h12.609
		c10.102,0,17.641-3.549,23.105-10.584c4.982-6.228,7.407-14.068,7.407-23.348c0,0,0-102.256,0-108.191h-21.339
		C594.229,96.626,594.229,199.448,594.229,199.448z"/>
	<g>
		<path fill="#1D4595" d="M1267.429,84.879v471.399h452.063V84.879H1267.429z M1688.381,523.862h-389.906v-406.5h389.906V523.862z"
			/>
		<path fill="#1D4595" d="M1416.347,214.921v77.137l-68.577,41.383v92.664l76.062,46.332h0.087c0.208,0,69.894-40.986,69.894-40.986
			l67.303,40.986l77.927-46.924V333.44l-68.631-41.383v-77.137l-76.599-46.211L1416.347,214.921z M1416.347,329.512v55.562
			l45.948,27.709l-37.696,22.76l-45.707-27.676v-55.781L1416.347,329.512z M1493.812,205.747l45.761,27.682c0,0,0,132.582,0,132.967
			c-0.329,0.185-45.443,27.326-45.761,27.578c-0.318-0.252-46.058-27.393-46.321-27.578c0-0.385,0-132.967,0-132.967
			L1493.812,205.747z M1570.411,385.161v-0.088v-55.562l37.619,22.573v55.781l-45.915,27.676l-37.619-22.76L1570.411,385.161z"/>
	</g>
	<g>
		<rect x="226.561" y="381.749" fill="#1D4595" width="21.328" height="142.113"/>
		<path fill="#1D4595" d="M139.564,388.716L86.741,523.862h20.017l13.662-37.873h51.238l12.395,37.873h24.708l-48.773-135.147
			H139.564z M147.202,412.509l19.968,60.027h-41.773L147.202,412.509z"/>
		<path fill="#1D4595" d="M774.762,388.716v135.147h40.335c29.636,0,48.89-15.508,48.89-39.223
			c0-19.852-17.218-31.725-33.449-32.461v-3.369c4.247-1.162,25.098-8.273,25.098-32.471c0-17.932-14.008-27.623-36.532-27.623
			H774.762z M796.073,402.017h15.572c13.838,0,22.102,7.332,22.102,19.512c0,14.268-11.33,25-27.566,25h-10.107V402.017z
			 M796.073,459.915h18.524c17.575,0,28.006,9.352,28.006,25.021c0,15.451-10.931,25.428-27.825,25.428h-18.706V459.915z"/>
		<polygon fill="#1D4595" points="1095.335,381.749 1095.335,523.862 1116.679,523.862 1116.679,467.599 1156.603,525.497 
			1177.53,517.825 1140.504,468.509 1168.871,433.579 1149.744,424.108 1116.679,467.235 1116.679,381.749 		"/>
		<path fill="#1D4595" d="M1008.3,439.46l-2.974,3.336V428.2H984.08v95.662h21.399v-57.318c0-16.143,9.306-26.645,23.803-26.645
			c13.312,0,21.234,8.91,21.234,24.889v59.074h21.378v-62.135c0-23.814-10.931-35.809-32.362-35.809
			C1027.186,425.919,1016.025,430.714,1008.3,439.46z"/>
		<rect x="683.25" y="428.2" fill="#1D4595" width="21.35" height="95.662"/>
		<rect x="683.25" y="393.743" fill="#1D4595" width="21.35" height="18.426"/>
		<rect x="527.199" y="393.743" fill="#1D4595" width="21.328" height="18.469"/>
		<path fill="#1D4595" d="M572.056,381.749v142.113h21.234v-57.318c0-16.143,9.433-26.645,23.857-26.645
			c13.422,0,21.246,8.91,21.246,24.889v59.074h21.383v-62.135c0-23.814-10.804-35.809-32.313-35.809
			c-12.33,0-23.468,4.795-31.249,13.541l-3.034,3.336v-61.047H572.056z"/>
		<path fill="#1D4595" d="M317.963,388.716v135.147h21.361v-57.209h17.877c0,0,26.749,56.978,27.863,59.348
			c2.178-0.406,20.691-3.951,24.428-4.652c-2.135-4.027-31.172-58.678-31.172-58.678l1.443-0.834
			c14.601-9.043,21.607-21.619,21.607-38.729c0-21.553-15.287-34.393-40.9-34.393H317.963z M339.324,402.017h17.603
			c14.436,0,23.056,9.262,23.056,23.496c0,12.861-8.143,27.742-26.063,27.742h-14.596V402.017z"/>
		<path fill="#1D4595" d="M527.199,428.2v96.385c0,10.854-1.662,20.324-3.66,25.143c-1.679,3.895-5.553,6.715-9.767,7.867
			c0,1.471,0,4.533,0,6.75c24.352-0.57,34.755-12.631,34.755-40.482V428.2H527.199z"/>
		<path fill="#1D4595" d="M923.416,425.919c-13.333,0-23.984,3.818-34.102,12.082c1.256,2.008,4.856,7.494,6.167,9.471
			c7.66-6.354,15.331-9.328,24.697-9.328c9.547,0,16.461,7.309,17.81,16.779l0.242,1.592l-22.683,7.012
			c-23.188,6.771-34.009,17.756-34.009,34.414c0,16.34,10.722,28.291,25.525,28.291c20.226,0,31.814-18.908,31.814-18.908v16.539
			h21.761l0,0V460.97C960.64,437.704,948.085,425.919,923.416,425.919z M929.649,505.37c-3.896,4.379-8.714,6.836-13.487,6.836
			c-7.369,0-13.092-7.318-13.092-16.525c0-12.051,6.634-20.313,19.819-24.561c0,0.066,14.003-4.643,14.003-4.643l2.271-0.834
			l0.175,2.316C940.788,489.622,933.885,500.673,929.649,505.37z"/>
		<path fill="#1D4595" d="M466.513,425.919c-13.361,0-23.967,3.818-34.135,12.082c1.256,2.008,4.862,7.494,6.184,9.471
			c7.665-6.354,15.369-9.328,24.729-9.328c9.663,0,16.483,7.309,17.855,16.779l0.247,1.592l-22.766,7.012
			c-23.149,6.771-33.904,17.756-33.904,34.414c0,16.34,10.672,28.313,25.449,28.313c20.247,0,31.808-18.93,31.808-18.93v16.539
			h21.778l0,0V460.97C503.759,437.704,491.227,425.919,466.513,425.919z M472.807,505.37c-4.011,4.379-8.741,6.836-13.476,6.836
			c-7.418,0-13.18-7.318-13.18-16.525c0-12.051,6.683-20.313,19.879-24.539c-0.022,0.045,14.024-4.664,14.024-4.664l2.217-0.834
			l0.17,2.316C483.907,489.622,476.966,500.696,472.807,505.37z"/>
	</g>
</g>
</svg>
