<svg xmlns="http://www.w3.org/2000/svg" width="24.547" height="24" viewBox="0 0 24.547 24">
  <g id="home-delivery-of-goods" transform="translate(0 -5.277)">
    <circle id="Ellipse_94" data-name="Ellipse 94" cx="0.724" cy="0.724" r="0.724" transform="translate(7.232 13.89)"/>
    <path id="Path_6028" data-name="Path 6028" d="M384.044,91.881a2.043,2.043,0,0,0-1.966,1.49h-.919a.553.553,0,1,0,0,1.105h.919a2.042,2.042,0,1,0,1.966-2.595Z" transform="translate(-361.539 -82.269)"/>
    <path id="Path_6029" data-name="Path 6029" d="M346.879,186.672a1.636,1.636,0,0,0-1.3.646,3.415,3.415,0,0,1-1.452,1.01,2.416,2.416,0,0,1-1.619-.179.716.716,0,0,0-.97.288.738.738,0,0,0,.288.97,4.061,4.061,0,0,0,2.718.29,3.843,3.843,0,0,0,.7-.295V192.9a1.635,1.635,0,0,0,.634,1.294V200.6a1,1,0,0,0,2.009,0V194.19a1.635,1.635,0,0,0,.634-1.294v-4.586A1.639,1.639,0,0,0,346.879,186.672Z" transform="translate(-324.345 -172.326)"/>
    <path id="Path_6030" data-name="Path 6030" d="M268.287,169.4c.563,0,.767.313,1.306.313.305,0,.66-.109.66-.273v-1.161a.735.735,0,0,0-.734-.734H267.41v.958a.126.126,0,0,1-.126.126h-.6a.126.126,0,0,1-.126-.126v-.958h-2.108a.735.735,0,0,0-.734.734v5.069a.735.735,0,0,0,.734.734h5.069a.735.735,0,0,0,.734-.734v-1.01a.126.126,0,0,0-.043-.095.134.134,0,0,0-.1-.03c-2.386.192-3.478-1.079-2.931-2.154A1.236,1.236,0,0,1,268.287,169.4Z" transform="translate(-250.504 -154.144)"/>
    <path id="Path_6031" data-name="Path 6031" d="M12.829,22.457H11.811V6.03a.754.754,0,0,0-.754-.753H2.273a.753.753,0,0,0-.753.753V22.457H.5a.5.5,0,0,0-.5.5v1.779a.5.5,0,0,0,.5.5H12.829a.5.5,0,0,0,.5-.5V22.959A.5.5,0,0,0,12.829,22.457ZM3.027,6.784H10.3V22.457H3.027Z" transform="translate(0 0)"/>
  </g>
</svg>
