<svg xmlns="http://www.w3.org/2000/svg" width="23.078" height="24" viewBox="0 0 23.078 24">
  <path id="Path_6032" data-name="Path 6032" d="M24.507,4.865H22.673v.909h-.857V4.865H19.971a1.208,1.208,0,0,0-1.208,1.208V8.906l2.1,1.96a1.617,1.617,0,0,1,.327.441h3.32A1.208,1.208,0,0,0,25.715,10.1V6.073A1.208,1.208,0,0,0,24.507,4.865Zm-1.734,3.5v1.775H21.7V8.367h-.758l1.3-1.536,1.294,1.542S23.528,8.367,22.773,8.367ZM11.757,2.484a2.484,2.484,0,1,1,2.484,2.484A2.484,2.484,0,0,1,11.757,2.484ZM20.344,12.6a.811.811,0,0,1-1.146.038l-3.336-3.12v4.782a1.611,1.611,0,0,1-.61,1.257L17.062,23a.811.811,0,0,1-1.575.383l-1.039-4.269L13.863,23.2a.811.811,0,0,1-1.605-.23l1.051-7.342a1.617,1.617,0,0,1-.689-1.323V8.01A1.613,1.613,0,0,1,14.827,6.5a.8.8,0,0,1,.394.2l5.085,4.756A.811.811,0,0,1,20.344,12.6ZM32.351,4.969a2.484,2.484,0,1,1,2.484-2.484A2.484,2.484,0,0,1,32.351,4.969Zm-6.065,6.49L31.371,6.7a.8.8,0,0,1,.394-.2A1.613,1.613,0,0,1,33.972,8.01v6.295a1.617,1.617,0,0,1-.689,1.323l1.051,7.342a.811.811,0,0,1-1.605.23l-.585-4.088-1.039,4.269A.811.811,0,1,1,29.53,23l1.809-7.435a1.611,1.611,0,0,1-.61-1.258V9.523l-3.336,3.12a.811.811,0,0,1-1.108-1.184Z" transform="translate(-11.757)"/>
</svg>
