<svg xmlns="http://www.w3.org/2000/svg" width="938.625" height="279" viewBox="0 0 938.625 279">
  <g id="Group_38047" data-name="Group 38047" transform="translate(-404.375 -321)">
    <g id="Group_3832" data-name="Group 3832" transform="translate(-3 101.714)">
      <g id="Asset_1" data-name="Asset 1" transform="translate(383 350.414)">
        <g id="Layer_2" data-name="Layer 2">
          <g id="Layer_1" data-name="Layer 1">
            <path id="Path_5789" data-name="Path 5789" d="M92.073,0,64.365,15.989l-4.584,2.649-.459.274L55.1,21.355,24.94,38.761,52.178,54.486l11.855,6.841L93.558,78.392l29.975-17.318,4.408-2.541.459-.283,4.437-2.541,27.815-16.077h0Z" transform="translate(-0.565)" fill="#ffdda8"/>
            <path id="Path_5790" data-name="Path 5790" d="M93.548,79.271v68.286L64.092,130.689l-11.933-6.822L24.94,108.259V39.67Z" transform="translate(-0.565 -0.899)" fill="#bc7c46"/>
            <path id="Path_5791" data-name="Path 5791" d="M134.409,56.627,129.9,59.246l-.459.254L125.1,62,95.14,79.3v68.276L125.1,130.386l9.3-5.346,27.834-15.97V40.55Z" transform="translate(-2.157 -0.919)" fill="#dda866"/>
            <path id="Path_5792" data-name="Path 5792" d="M101.119,135.035l-.459.264V127.3l.459-.264Z" transform="translate(-2.282 -2.88)" fill="#4f2e16"/>
            <path id="Path_5793" data-name="Path 5793" d="M102.723,127.841l-.332.557-1.544-1.026-1.534,2.8L98.97,130l1.876-3.411Z" transform="translate(-2.244 -2.87)" fill="#4f2e16"/>
            <path id="Path_5794" data-name="Path 5794" d="M105.819,132.315l-.459.274v-7.995l.459-.264Z" transform="translate(-2.389 -2.819)" fill="#4f2e16"/>
            <path id="Path_5795" data-name="Path 5795" d="M107.433,125.131l-.352.547-1.525-1.026-1.544,2.8-.342-.166,1.886-3.411Z" transform="translate(-2.35 -2.809)" fill="#4f2e16"/>
            <path id="Path_5796" data-name="Path 5796" d="M107.435,131.727l-8.591,4.945c-.117.078-.225,0-.225-.137a.528.528,0,0,1,.225-.391l8.591-4.945c.117-.078.215,0,.215.127a.538.538,0,0,1-.215.4Z" transform="translate(-2.236 -2.974)" fill="#4f2e16"/>
            <path id="Path_5797" data-name="Path 5797" d="M107.327,133.681l-8.434,4.887c-.889.518-1.613.1-1.613-.977v-9.773a3.548,3.548,0,0,1,1.613-2.785l8.434-4.887c.88-.508,1.6-.088,1.6.977V130.9a3.557,3.557,0,0,1-1.6,2.785Zm-8.434-8.043a2.541,2.541,0,0,0-1.143,1.955v9.773c0,.733.518.977,1.143.665l8.434-4.887a2.5,2.5,0,0,0,1.134-1.955v-9.773c0-.733-.518-1.036-1.143-.665Z" transform="translate(-2.205 -2.719)" fill="#4f2e16"/>
            <path id="Path_5798" data-name="Path 5798" d="M122.1,125.484l-8.679,5c-.909.538-1.642.1-1.642-.977v-9.979a3.675,3.675,0,0,1,1.642-2.873l8.679-4.994c.909-.528,1.642-.1,1.642.977V122.65a3.655,3.655,0,0,1-1.642,2.834Zm-8.679-8.278a2.59,2.59,0,0,0-1.173,2.052v10.008c0,.753.518,1.056,1.173.684l8.679-5.014a2.59,2.59,0,0,0,1.173-2.043V112.886c0-.753-.528-1.065-1.173-.684Z" transform="translate(-2.534 -2.526)" fill="#4f2e16"/>
            <path id="Path_5799" data-name="Path 5799" d="M117.894,125.41a.16.16,0,0,1-.254-.147V118.1a.537.537,0,0,1,.254-.41c.127-.078.225,0,.225.137V125a.547.547,0,0,1-.225.41Z" transform="translate(-2.667 -2.667)" fill="#4f2e16"/>
            <path id="Path_5800" data-name="Path 5800" d="M118.945,124.987l-2.14,1.241a.154.154,0,0,1-.244-.137.508.508,0,0,1,.244-.41l2.14-1.241c.137-.078.235,0,.235.137A.518.518,0,0,1,118.945,124.987Z" transform="translate(-2.643 -2.821)" fill="#4f2e16"/>
            <path id="Path_5801" data-name="Path 5801" d="M120.124,115.66v3.352a3.1,3.1,0,0,1-1.417,2.453l-1.73.977c-.782.45-1.407.078-1.407-.821v-3.352l.85-.489v3.577c0,.156.108.215.235.137a.518.518,0,0,0,.244-.4v-3.587Z" transform="translate(-2.62 -2.622)" fill="#4f2e16"/>
            <path id="Path_5802" data-name="Path 5802" d="M92.115,1.06,26.8,38.795,93.591,77.077l65.344-37.432Z" transform="translate(-0.608 -0.024)" fill="#f9c98a"/>
            <path id="Path_5803" data-name="Path 5803" d="M162.253,41.25v.538L95.14,80.529V80Z" transform="translate(-2.157 -0.935)" fill="#bc7c46"/>
            <path id="Path_5804" data-name="Path 5804" d="M129.188,58.691l-.459.274L60.12,19.354l.45-.274Z" transform="translate(-1.363 -0.433)" fill="#bc7c46"/>
            <path id="Path_5805" data-name="Path 5805" d="M130.689,59.68v1.095h-.459v-.84Z" transform="translate(-2.953 -1.353)" fill="#bc7c46"/>
            <rect id="Rectangle_1032" data-name="Rectangle 1032" width="0.528" height="1.339" transform="translate(122.537 39.025)" fill="#373a3f"/>
            <rect id="Rectangle_1033" data-name="Rectangle 1033" width="0.958" height="1.192" transform="translate(24.756 30.024)" fill="#373a3f"/>
            <path id="Path_5806" data-name="Path 5806" d="M122.252,38.6c1.857,1.065,1.857,2.8,0,3.909l-36.5,21.032a7.369,7.369,0,0,1-6.7,0L26.718,33.333c-1.857-1.065-1.857-2.8,0-3.909l36.5-21.032a7.369,7.369,0,0,1,6.7,0Z" transform="translate(-0.574 -0.172)" fill="#373a3f"/>
            <path id="Path_5807" data-name="Path 5807" d="M122.252,37.4c1.857,1.075,1.857,2.815,0,3.909l-36.5,21.052a7.428,7.428,0,0,1-6.7,0L26.718,32.143c-1.857-1.065-1.857-2.8,0-3.909l36.5-21.042a7.428,7.428,0,0,1,6.7,0Z" transform="translate(-0.574 -0.145)" fill="#14161a"/>
            <path id="Path_5808" data-name="Path 5808" d="M59.7,14.878a1.3,1.3,0,0,1,0,2.453l-15.432,8.9a4.681,4.681,0,0,1-4.261,0h0a1.3,1.3,0,0,1-.029-2.453l15.432-8.9a4.681,4.681,0,0,1,4.261,0Z" transform="translate(-0.887 -0.326)" fill="#403e3f"/>
            <path id="Path_5809" data-name="Path 5809" d="M58.8,16a.518.518,0,0,1,0,.977,1.867,1.867,0,0,1-1.7,0,.518.518,0,0,1,0-.977,1.955,1.955,0,0,1,1.7,0Z" transform="translate(-1.287 -0.358)" fill="#4c4c4c"/>
            <path id="Path_5810" data-name="Path 5810" d="M58.641,16.136c.381.225.381.577,0,.792a1.5,1.5,0,0,1-1.378,0c-.381-.215-.381-.567,0-.792A1.554,1.554,0,0,1,58.641,16.136Z" transform="translate(-1.292 -0.362)" fill="#5b5a5b"/>
            <path id="Path_5811" data-name="Path 5811" d="M58.33,16.338c.205.108.205.3,0,.42a.811.811,0,0,1-.733,0,.225.225,0,0,1,0-.42A.753.753,0,0,1,58.33,16.338Z" transform="translate(-1.303 -0.368)" fill="#14161a"/>
            <path id="Path_5812" data-name="Path 5812" d="M43.623,24.805a.518.518,0,0,1,0,.977,1.955,1.955,0,0,1-1.71,0,.528.528,0,0,1,0-.977A1.886,1.886,0,0,1,43.623,24.805Z" transform="translate(-0.943 -0.558)" fill="#4c4c4c"/>
            <path id="Path_5813" data-name="Path 5813" d="M43.462,24.906a.42.42,0,0,1,0,.792,1.5,1.5,0,0,1-1.378,0,.42.42,0,0,1,0-.792A1.554,1.554,0,0,1,43.462,24.906Z" transform="translate(-0.948 -0.561)" fill="#5b5a5b"/>
            <path id="Path_5814" data-name="Path 5814" d="M43.15,25.1a.225.225,0,0,1,0,.42.811.811,0,0,1-.733,0,.225.225,0,0,1,0-.42A.811.811,0,0,1,43.15,25.1Z" transform="translate(-0.958 -0.567)" fill="#14161a"/>
            <path id="Path_5815" data-name="Path 5815" d="M58.375,13.527c.323.176.323.469,0,.655L38.828,25.47a1.241,1.241,0,0,1-1.143,0h0a.342.342,0,0,1,0-.645l19.547-11.3a1.222,1.222,0,0,1,1.134,0Z" transform="translate(-0.849 -0.304)" fill="#5b5a5b"/>
            <rect id="Rectangle_1034" data-name="Rectangle 1034" width="0.235" height="0.42" transform="translate(57.526 13.135)" fill="#5b5a5b"/>
            <rect id="Rectangle_1035" data-name="Rectangle 1035" width="0.244" height="0.352" transform="translate(36.591 24.443)" fill="#5b5a5b"/>
            <path id="Path_5816" data-name="Path 5816" d="M118.663,38.969l-36.4,21.013L32.16,31.053V30.8L68.546,10.04l50.117,28.685Z" transform="translate(-0.729 -0.228)" fill="#cad2da"/>
            <path id="Path_5817" data-name="Path 5817" d="M118.663,38.719l-36.4,21L32.16,30.793l36.386-21Z" transform="translate(-0.729 -0.222)" fill="#fff"/>
            <path id="Path_5818" data-name="Path 5818" d="M78.241,21.023,52.987,35.6l-.567-.323L77.684,20.7Z" transform="translate(-1.188 -0.469)" fill="#969696"/>
            <path id="Path_5819" data-name="Path 5819" d="M84,24.513,58.757,39.094l-.567-.323L83.444,24.19Z" transform="translate(-1.319 -0.548)" fill="#969696"/>
            <path id="Path_5820" data-name="Path 5820" d="M89.771,28,64.517,42.584l-.557-.323L89.214,27.68Z" transform="translate(-1.45 -0.628)" fill="#969696"/>
            <path id="Path_5821" data-name="Path 5821" d="M95.541,31.493,70.287,46.074l-.557-.323L94.974,31.17Z" transform="translate(-1.581 -0.707)" fill="#969696"/>
            <path id="Path_5822" data-name="Path 5822" d="M73.52,18.037,48.735,32.364,45.48,30.488,70.275,16.17Z" transform="translate(-1.031 -0.367)" fill="#e2e2e2"/>
            <path id="Path_5823" data-name="Path 5823" d="M37.969,27.993a.792.792,0,0,1-.362-.078,1.837,1.837,0,0,1-.977-1.427c0-.909.753-1.818,2.414-2.766L57.027,13.353a5.1,5.1,0,0,1,2.6-.743,4.633,4.633,0,0,1,2.512.723.489.489,0,0,1,.205.557C61.884,15.737,40.7,27.993,37.969,27.993Zm0-.772h0c2.121,0,21.785-11.23,23.524-13.37a3.909,3.909,0,0,0-1.867-.469,4.33,4.33,0,0,0-2.209.645L39.464,24.4c-1.779.977-2.033,1.73-2.023,2.062A.977.977,0,0,0,37.969,27.221Z" transform="translate(-0.83 -0.286)" fill="#848484"/>
            <path id="Path_5824" data-name="Path 5824" d="M58.374,13.127c.323.186.323.479,0,.655L38.828,25.08a1.241,1.241,0,0,1-1.143,0h0a.342.342,0,0,1,0-.655l19.547-11.3a1.251,1.251,0,0,1,1.134,0Z" transform="translate(-0.849 -0.295)" fill="#a1a5a8"/>
            <path id="Path_5825" data-name="Path 5825" d="M92.57,41.243,105.5,42.8,95.981,30.16l3.44,9.118Z" transform="translate(-2.099 -0.684)" fill="#11ad00"/>
            <path id="Path_5826" data-name="Path 5826" d="M94.919,14.034l-1.583-.684-.137.127-.049.225,1.456,1.007Z" transform="translate(-2.112 -0.303)" fill="#23201d"/>
            <path id="Path_5827" data-name="Path 5827" d="M94.923,14.036l-1.358-.586-.235.371,1.28.889Z" transform="translate(-2.116 -0.305)" fill="#cad2da"/>
            <path id="Path_5828" data-name="Path 5828" d="M99.821,17.276,98.453,18.39l-4.183-3.5.127-.743.577-.479,5.131,1.867Z" transform="translate(-2.137 -0.31)" fill="#848484"/>
            <path id="Path_5829" data-name="Path 5829" d="M99.571,17.652l.733-1.486c-.244-.137-4.056-1.573-5.532-2.326l-.323.274C95.388,14.768,98.77,17.28,99.571,17.652Z" transform="translate(-2.141 -0.314)" fill="#a1a5a8"/>
            <path id="Path_5830" data-name="Path 5830" d="M129.329,32.4l-1.652,2.864L98.622,18.483a.811.811,0,0,1-.352-.762,2.59,2.59,0,0,1,.5-1.388,2.257,2.257,0,0,1,.674-.625.205.205,0,0,1,.1,0,.772.772,0,0,1,.723-.049Z" transform="translate(-2.228 -0.353)" fill="#14161a"/>
            <path id="Path_5831" data-name="Path 5831" d="M130.346,33.551c0-.743-.528-1.046-1.163-.674a2.57,2.57,0,0,0-1.173,2.013c0,.753.528,1.046,1.173.674A2.59,2.59,0,0,0,130.346,33.551Z" transform="translate(-2.902 -0.742)" fill="#14161a"/>
            <path id="Path_5832" data-name="Path 5832" d="M134.488,34.641l-.3.538-1.124,1.955-.713,1.231L119.33,31.172a1.818,1.818,0,0,1-.44-.977,2.834,2.834,0,0,1,.254-1.095,3.176,3.176,0,0,1,1.261-1.505,1.955,1.955,0,0,1,.332-.147.86.86,0,0,1,.733,0Z" transform="translate(-2.695 -0.62)" fill="#14161a"/>
            <path id="Path_5833" data-name="Path 5833" d="M134.191,35.18l-1.124,1.955L119.15,29.092a3.176,3.176,0,0,1,1.261-1.505,1.955,1.955,0,0,1,.332-.147Z" transform="translate(-2.701 -0.622)" fill="#373a3f"/>
            <path id="Path_5834" data-name="Path 5834" d="M125.051,30.38l-.831.645L98.81,16.365a2.258,2.258,0,0,1,.674-.625.205.205,0,0,1,.1,0Z" transform="translate(-2.24 -0.357)" fill="#373a3f"/>
            <path id="Path_5835" data-name="Path 5835" d="M135.23,35.795c0-.977-.674-1.349-1.505-.87a3.372,3.372,0,0,0-1.515,2.6c0,.977.674,1.358,1.515.88A3.333,3.333,0,0,0,135.23,35.795Z" transform="translate(-2.997 -0.787)" fill="#14161a"/>
            <path id="Path_5836" data-name="Path 5836" d="M134.781,36.072c0-.674-.469-.977-1.046-.606a2.326,2.326,0,0,0-1.056,1.818c0,.665.469.977,1.056.606A2.326,2.326,0,0,0,134.781,36.072Z" transform="translate(-3.008 -0.8)" fill="#cad2da"/>
            <path id="Path_5837" data-name="Path 5837" d="M130.591,37.285c0,.254-.176.352-.4.225l-12.529-7.232a.88.88,0,0,1-.391-.684h0c0-.254.176-.352.391-.225L130.19,36.6A.86.86,0,0,1,130.591,37.285Z" transform="translate(-2.659 -0.665)" fill="#b0b9c1"/>
            <path id="Path_5838" data-name="Path 5838" d="M130.392,37.959l.4-.274-.205-.616-.538.371Z" transform="translate(-2.948 -0.84)" fill="#b0b9c1"/>
            <path id="Path_5839" data-name="Path 5839" d="M116.94,29.653l.41-.283s.4.235.352.283l-.518.42Z" transform="translate(-2.651 -0.666)" fill="#b0b9c1"/>
            <path id="Path_5840" data-name="Path 5840" d="M130.181,37.555c0,.254-.176.362-.391.235l-12.539-7.232a.909.909,0,0,1-.391-.684h0c0-.254.176-.362.391-.225l12.539,7.232a.87.87,0,0,1,.391.674Z" transform="translate(-2.649 -0.671)" fill="#cad2da"/>
          </g>
        </g>
      </g>
      <g id="Asset_2" data-name="Asset 2" transform="translate(651.127 350)">
        <g id="Layer_2-2" data-name="Layer 2">
          <g id="Layer_1-2" data-name="Layer 1">
            <path id="Path_5842" data-name="Path 5842" d="M129.622,48.691l-10-5.8L96.787,29.7,40.41,62.293,63.28,75.5l9.965,5.75L98.028,95.568l56.351-32.55h0Z" transform="translate(-5.575 -4.098)" fill="#ffdda8"/>
            <path id="Path_5843" data-name="Path 5843" d="M97.041,30.76,42.19,62.448,48.8,66.233l2.586,1.5,9.431,5.4,29.309,16.81,8.094,4.638,8.62-4.965,7.577-4.31,38.61-22.12Z" transform="translate(-5.821 -4.244)" fill="#dda866"/>
            <path id="Path_5844" data-name="Path 5844" d="M105.82,30.76v57.1l6.819,3.543,21.206-12.163,10.629-6.034,2.509-1.44,6.508-3.741.405-.233L156.4,66.31l5.5-3.155Z" transform="translate(-14.6 -4.244)" fill="#aa6838"/>
            <path id="Path_5845" data-name="Path 5845" d="M98.028,100.767v56.067L73.3,142.662,63.28,136.929,40.41,123.835V67.51L63.28,80.716,73.3,86.483Z" transform="translate(-5.575 -9.314)" fill="#bc7c46"/>
            <path id="Path_5846" data-name="Path 5846" d="M107.25,100.892v56.032L163.6,124.6V68.35Z" transform="translate(-14.797 -9.43)" fill="#dda866"/>
            <path id="Path_5847" data-name="Path 5847" d="M92.461,26.169,71.135.98,15.68,32.194v1.267L37,58.331l1.164.112L92.478,27.117Z" transform="translate(-2.163 -0.135)" fill="#bc7c46"/>
            <path id="Path_5848" data-name="Path 5848" d="M15.67,32.085,38.16,58.308,93.374,26.49v-.94L71.935,0Z" transform="translate(-2.162)" fill="#edc893"/>
            <path id="Path_5849" data-name="Path 5849" d="M134.255,1.761l-27.4,24.99,55.187,32.5,1.578-.19,27.025-25-.405-.914L135.083,1.27Z" transform="translate(-14.743 -0.175)" fill="#bc7c46"/>
            <path id="Path_5850" data-name="Path 5850" d="M161.864,59.162l28.188-26.1L134.012.63l-.862.5L105.53,26.4Z" transform="translate(-14.56 -0.087)" fill="#edc893"/>
            <path id="Path_5851" data-name="Path 5851" d="M115.937,155.185l-.4.233v-6.9l.4-.233Z" transform="translate(-15.941 -20.458)" fill="#4f2e16"/>
            <path id="Path_5852" data-name="Path 5852" d="M117.123,148.918l-.276.483-1.336-.888-1.328,2.431-.293-.155,1.621-2.948Z" transform="translate(-15.713 -20.397)" fill="#4f2e16"/>
            <path id="Path_5853" data-name="Path 5853" d="M120.547,152.526l-.4.233v-6.9l.4-.233Z" transform="translate(-16.577 -20.092)" fill="#4f2e16"/>
            <path id="Path_5854" data-name="Path 5854" d="M121.74,146.259l-.3.483-1.319-.888-1.336,2.422-.293-.138,1.629-2.948Z" transform="translate(-16.348 -20.032)" fill="#4f2e16"/>
            <path id="Path_5855" data-name="Path 5855" d="M121.153,152.8l-7.4,4.31c-.112.06-.2,0-.2-.121a.422.422,0,0,1,.2-.336l7.4-4.31a.125.125,0,0,1,.2.121A.448.448,0,0,1,121.153,152.8Z" transform="translate(-15.666 -21.016)" fill="#4f2e16"/>
            <path id="Path_5856" data-name="Path 5856" d="M120.912,153.161l-7.276,4.207c-.776.44-1.4.078-1.4-.8v-8.4a3.043,3.043,0,0,1,1.4-2.405l7.276-4.207c.759-.44,1.379-.086,1.379.8v8.413a3.069,3.069,0,0,1-1.379,2.4Zm-7.276-6.939a2.2,2.2,0,0,0-1,1.724v8.4c0,.629.448.862,1,.569l7.276-4.2a2.181,2.181,0,0,0,.983-1.724v-8.4c0-.629-.448-.862-.991-.578Z" transform="translate(-15.486 -19.503)" fill="#4f2e16"/>
            <path id="Path_5857" data-name="Path 5857" d="M134.4,145.332l-7.276,4.207c-.767.44-1.388.078-1.388-.8v-8.4a3.06,3.06,0,0,1,1.388-2.405l7.276-4.2c.767-.448,1.388-.086,1.388.793v8.4a3.06,3.06,0,0,1-1.388,2.405Zm-7.276-6.948a2.172,2.172,0,0,0-.991,1.724v8.413c0,.621.44.862.991.569l7.276-4.207a2.2,2.2,0,0,0,.991-1.724V134.8c0-.638-.448-.862-.991-.578Z" transform="translate(-17.348 -18.424)" fill="#4f2e16"/>
            <path id="Path_5858" data-name="Path 5858" d="M131.537,145.957a.127.127,0,0,1-.207-.112v-6.034a.431.431,0,0,1,.207-.345.118.118,0,0,1,.19.112v6.034a.44.44,0,0,1-.19.345Z" transform="translate(-18.119 -19.239)" fill="#4f2e16"/>
            <path id="Path_5859" data-name="Path 5859" d="M132.29,146.322l-1.8,1.043a.123.123,0,0,1-.2-.112.422.422,0,0,1,.2-.345l1.8-1.043c.112-.069.2,0,.2.112A.44.44,0,0,1,132.29,146.322Z" transform="translate(-17.976 -20.121)" fill="#4f2e16"/>
            <path id="Path_5860" data-name="Path 5860" d="M133.177,137.57v2.81a2.586,2.586,0,0,1-1.19,2.06l-1.457.862c-.655.379-1.181.069-1.181-.69V139.8l.715-.414V142.4c0,.129.095.181.2.112a.422.422,0,0,0,.207-.336v-3.017Z" transform="translate(-17.846 -18.98)" fill="#4f2e16"/>
            <path id="Path_5861" data-name="Path 5861" d="M104.93,96.58l-5.5,3.181,6.819,3.905,5.5-3.155Z" transform="translate(-13.718 -13.325)" fill="#c68b51"/>
            <path id="Path_5862" data-name="Path 5862" d="M7.32,57.61,37.1,66.342l56.36,31.947-.009,1.052L63.4,91.919,7.32,58.61Z" transform="translate(-1.01 -7.948)" fill="#dda866"/>
            <path id="Path_5863" data-name="Path 5863" d="M37.215,66.144,7.32,57.61,63.4,90.893l30.059,7.4Z" transform="translate(-1.01 -7.948)" fill="#edc893"/>
            <path id="Path_5864" data-name="Path 5864" d="M162.851,69.38l-55.6,30.533v1.164l28.257,6.9,56.1-31.964v-.922Z" transform="translate(-14.797 -9.572)" fill="#bc7c46"/>
            <rect id="Rectangle_1036" data-name="Rectangle 1036" width="21.172" height="20.309" transform="translate(99.479 66.126)" fill="#161e26"/>
            <path id="Path_5865" data-name="Path 5865" d="M162.1,68.33,107.25,99.768l28.275,7.1,56.1-31.93-28-6.586Z" transform="translate(-14.797 -9.427)" fill="#edc893"/>
            <path id="Path_5866" data-name="Path 5866" d="M143.615,68.135,102.763,91.72,61.92,68.135,102.763,44.55Z" transform="translate(-8.543 -6.146)" fill="#262c33"/>
            <path id="Path_5867" data-name="Path 5867" d="M152.383,69.223l-.405.233L145.47,73.2l-2.509,1.44L104.308,52.319,94.86,46.862l9.4-5.422.043.017Z" transform="translate(-13.088 -5.717)" fill="#d5eefa"/>
            <path id="Path_5868" data-name="Path 5868" d="M112.563,46.862,96.245,56.388,90.6,53.129,86.84,55.3V47.966l16.318-6.526Z" transform="translate(-11.981 -5.717)" fill="#d5eefa"/>
            <path id="Path_5869" data-name="Path 5869" d="M157.4,73.3l-6.508,3.741-13.137,7.534-.095.017V80.748l-3.517-2.026V75.834L150.45,69.3Z" transform="translate(-18.507 -9.561)" fill="#d5eefa"/>
            <path id="Path_5870" data-name="Path 5870" d="M154.892,67.322l-9.422,5.414L104.308,48.977,94.86,43.512l9.4-5.422.043.017Z" transform="translate(-13.088 -5.255)" fill="#eaf5f9"/>
            <path id="Path_5871" data-name="Path 5871" d="M112.563,43.512,96.245,52.934,86.84,47.5l16.318-9.413Z" transform="translate(-11.981 -5.255)" fill="#eaf5f9"/>
            <path id="Path_5872" data-name="Path 5872" d="M159.853,71.381l-16.31,9.413-9.413-5.422,16.318-9.422Z" transform="translate(-18.506 -9.099)" fill="#eaf5f9"/>
            <path id="Path_5873" data-name="Path 5873" d="M76.5,66.571v3l-5.388,3.112-8.784,5.06-9.431-5.4,8.8-5.086,5.4-3.112Z" transform="translate(-7.299 -8.849)" fill="#d5eefa"/>
            <path id="Path_5874" data-name="Path 5874" d="M108,94.492l-8.663,4.957-8.094-4.638L61.911,78l-9.431-5.4L49.86,71.1l8.819-5.086.043.017,2.56,1.483L70.7,72.941,99.9,89.8Z" transform="translate(-6.879 -9.107)" fill="#eaf5f9"/>
            <path id="Path_5875" data-name="Path 5875" d="M76.164,66.121l-16.31,9.413L50.45,70.1,66.76,60.69Z" transform="translate(-6.96 -8.373)" fill="#eaf5f9"/>
            <path id="Path_5876" data-name="Path 5876" d="M122.2,93.249,114.618,97.6l-8.663,4.957L97.86,97.922l8.663-5.008,7.551-4.353Z" transform="translate(-13.502 -12.218)" fill="#eaf5f9"/>
          </g>
        </g>
      </g>
      <g id="Group_2296" data-name="Group 2296" transform="translate(1199 350.414)" opacity="0.33">
        <g id="Group_2176" data-name="Group 2176" transform="translate(0)">
          <path id="Path_1520" data-name="Path 1520" d="M147,73.5a73.494,73.494,0,0,1-40,65.442q-3.15,1.615-6.471,2.931a73.028,73.028,0,0,1-22.509,4.989Q75.774,147,73.5,147c-.63,0-1.26-.009-1.887-.024h0a73.458,73.458,0,0,1-15.7-2.094h0a73.248,73.248,0,0,1-9.438-3.009q-3.317-1.314-6.471-2.931a73.511,73.511,0,1,1,73.46-127.137q2.979,1.931,5.751,4.137A73.368,73.368,0,0,1,147,73.5Z" transform="translate(0 0)" fill="#707070" opacity="0.8"/>
        </g>
        <path id="Path_1602" data-name="Path 1602" d="M62.911,15,31.581,50.246,12,34.581" transform="translate(36.111 40.844)" fill="none" stroke="#fff" stroke-linecap="round" stroke-linejoin="round" stroke-miterlimit="10" stroke-width="12"/>
      </g>
    </g>
    <g id="Group_3743" data-name="Group 3743" transform="translate(-369 161)">
      <rect id="Rectangle_937" data-name="Rectangle 937" width="863" height="3" transform="translate(810 239)" fill="#707070"/>
      <rect id="Rectangle_936" data-name="Rectangle 936" width="234" height="3" transform="translate(868 239)" fill="#00a651"/>
      <path id="Path_3410" data-name="Path 3410" d="M33.5,0A33.5,33.5,0,1,1,0,33.5,33.5,33.5,0,0,1,33.5,0Z" transform="translate(1607 206)" fill="#707070"/>
      <circle id="Ellipse_45" data-name="Ellipse 45" cx="33.5" cy="33.5" r="33.5" transform="translate(1340 206)" fill="#707070"/>
      <text id="_4" data-name="4" transform="translate(1648 250)" fill="#fff" font-size="30" font-family="Cairo-Bold, Cairo" font-weight="700"><tspan x="-16.8" y="0">4</tspan></text>
      <text id="_3" data-name="3" transform="translate(1382 250)" fill="#fff" font-size="30" font-family="Cairo-Bold, Cairo" font-weight="700"><tspan x="-16.8" y="0">3</tspan></text>
      <circle id="Ellipse_46" data-name="Ellipse 46" cx="33.5" cy="33.5" r="33.5" transform="translate(1073 206)" fill="#00a651"/>
      <circle id="Ellipse_56" data-name="Ellipse 56" cx="33.5" cy="33.5" r="33.5" transform="translate(806 206)" fill="#707070"/>
      <text id="_2" data-name="2" transform="translate(1115 250)" fill="#fff" font-size="30" font-family="Cairo-Bold, Cairo" font-weight="700"><tspan x="-16.8" y="0">2</tspan></text>
      <text id="_4-2" data-name="4" transform="translate(848 250)" fill="#fff" font-size="30" font-family="Cairo-Bold, Cairo" font-weight="700"><tspan x="-16.8" y="0">4</tspan></text>
      <circle id="Ellipse_60" data-name="Ellipse 60" cx="33.5" cy="33.5" r="33.5" transform="translate(806 206)" fill="#00a651"/>
      <text id="_1" data-name="1" transform="translate(848 250)" fill="#fff" font-size="30" font-family="Cairo-Bold, Cairo" font-weight="700"><tspan x="-16.8" y="0">1</tspan></text>
      <text id="قيد_التنفيذ" data-name="قيد التنفيذ" transform="translate(840 187)" stroke="rgba(0,0,0,0)" stroke-width="1" font-size="20" font-family="Cairo-SemiBold, Cairo" font-weight="600"><tspan x="-46.89" y="0">قيد التنفيذ</tspan></text>
      <text id="جاري_تجهيز_القطع" data-name="جاري تجهيز القطع" transform="translate(1107 187)" stroke="rgba(0,0,0,0)" stroke-width="1" font-size="20" font-family="Cairo-SemiBold, Cairo" font-weight="600"><tspan x="-76.12" y="0">جاري تجهيز القطع</tspan></text>
      <text id="تم_التسليم_للمندوب" data-name="تم التسليم للمندوب" transform="translate(1374 187)" fill="#707070" stroke="rgba(0,0,0,0)" stroke-width="1" font-size="20" font-family="Cairo-SemiBold, Cairo" font-weight="600"><tspan x="-82.73" y="0">تم التسليم للمندوب</tspan></text>
      <text id="تم_التوصيل" data-name="تم التوصيل" transform="translate(1641 187)" fill="#707070" stroke="rgba(0,0,0,0)" stroke-width="1" font-size="20" font-family="Cairo-SemiBold, Cairo" font-weight="600"><tspan x="-46.65" y="0">تم التوصيل</tspan></text>
      <g id="Layer_2-3" data-name="Layer 2" transform="translate(1232 334.539)" opacity="0.21">
        <g id="OBJECTS" transform="translate(0)">
          <path id="Path_5979" data-name="Path 5979" d="M6.52,63.151a1.856,1.856,0,0,0,1.856,1.856h0a1.856,1.856,0,0,0,1.856-1.856V49.461A1.841,1.841,0,0,0,8.376,47.62h0A1.841,1.841,0,0,0,6.52,49.461Z" transform="translate(3.566 26.043)" fill="#fff"/>
          <path id="Path_5980" data-name="Path 5980" d="M0,51.828a1.284,1.284,0,0,0,1.284,1.284h0a1.284,1.284,0,0,0,1.3-1.284V42.315A1.3,1.3,0,0,0,1.284,41h0A1.3,1.3,0,0,0,0,42.3Z" transform="translate(0 22.422)" fill="#fff"/>
          <rect id="Rectangle_1045" data-name="Rectangle 1045" width="34.14" height="17.279" rx="3.19" transform="translate(264.579 80.778)" fill="#333"/>
          <rect id="Rectangle_1046" data-name="Rectangle 1046" width="11.401" height="55.611" rx="3.19" transform="translate(232.172 18.099)" fill="#1a1a1a"/>
          <rect id="Rectangle_1047" data-name="Rectangle 1047" width="11.401" height="55.611" rx="3.19" transform="translate(232.172 18.099)" fill="#1a1a1a"/>
          <path id="Path_5981" data-name="Path 5981" d="M215.55,41.1V57.884a16.3,16.3,0,0,1-16.289,16.289H171.139A16.3,16.3,0,0,1,154.85,57.884V12.591a1.547,1.547,0,0,1,.9-1.377,29.87,29.87,0,0,1,11.138-1.872,57.374,57.374,0,0,1,16.32,2.568c1.207.371,2.49.8,3.914,1.315a43.638,43.638,0,0,1,16.351,8.059,40.5,40.5,0,0,1,6.373,6.095c.418.48.8.975,1.16,1.47A20.744,20.744,0,0,1,215.55,41.1Z" transform="translate(84.685 5.105)" fill="#b2b2b2"/>
          <path id="Path_5982" data-name="Path 5982" d="M207.757,34.737v14.68l-5-.557h-.325l-5.151-.557-3.821-.418-10.828-1.191-4.1-.449c-5.228,0-9.436-2.614-9.436-5.832V26.8c0-3.2,4.208-5.832,9.436-5.832h23.513c.418.48.8.975,1.16,1.47a24.751,24.751,0,0,1,3.2,5.646,17.8,17.8,0,0,1,1.346,6.652Z" transform="translate(92.478 11.468)" fill="#4d4d4d"/>
          <path id="Path_5983" data-name="Path 5983" d="M202.516,21.7a4.95,4.95,0,0,1-3.558,4.733,5.043,5.043,0,0,1-1.392.2H159.745A4.935,4.935,0,0,1,154.81,21.7V9.185a4.935,4.935,0,0,1,4.935-4.935l28.88,4.935C204.48,11.814,202.516,21.7,202.516,21.7Z" transform="translate(84.663 2.324)" fill="#ccc"/>
          <path id="Path_5984" data-name="Path 5984" d="M198.958,24.71a5.042,5.042,0,0,1-1.392.2H159.745a4.935,4.935,0,0,1-4.935-4.935V7.6a4.393,4.393,0,0,1,1.361-.2l28.88,4.935C199.732,14.779,199.128,23.426,198.958,24.71Z" transform="translate(84.663 4.047)" fill="#e6e6e6"/>
          <path id="Path_5985" data-name="Path 5985" d="M215.572,51.524V67.89a4.78,4.78,0,0,1-1.036,3.094.2.2,0,0,1,0,.108,4.857,4.857,0,0,1-3.094,1.748,3.481,3.481,0,0,1-.712,0H159.745a4.935,4.935,0,0,1-4.935-4.935V37.71L210.5,46.574h.139a4.922,4.922,0,0,1,4.935,4.935Z" transform="translate(84.663 20.623)" fill="#ccc"/>
          <path id="Path_5986" data-name="Path 5986" d="M114.548,64.059A11.849,11.849,0,1,1,102.7,52.21a11.849,11.849,0,0,1,11.849,11.849Z" transform="translate(49.684 28.553)" fill="#333"/>
          <path id="Path_5987" data-name="Path 5987" d="M112.957,63.534A10.674,10.674,0,1,1,102.284,52.86a10.673,10.673,0,0,1,10.673,10.674Z" transform="translate(50.1 28.908)" fill="#1a1a1a"/>
          <path id="Path_5988" data-name="Path 5988" d="M107.283,62.131A6.481,6.481,0,1,1,100.8,55.65,6.481,6.481,0,0,1,107.283,62.131Z" transform="translate(51.582 30.434)" fill="#666"/>
          <path id="Path_5989" data-name="Path 5989" d="M100.982,69.283a6.976,6.976,0,1,1,6.961-6.976,6.976,6.976,0,0,1-6.961,6.976Zm0-12.963a5.963,5.963,0,1,1,0,.046Z" transform="translate(51.402 30.259)" fill="gray"/>
          <path id="Path_5990" data-name="Path 5990" d="M77.378,64.059A11.849,11.849,0,1,1,65.529,52.21,11.849,11.849,0,0,1,77.378,64.059Z" transform="translate(29.357 28.553)" fill="#333"/>
          <path id="Path_5991" data-name="Path 5991" d="M75.757,63.534A10.674,10.674,0,1,1,65.083,52.86,10.673,10.673,0,0,1,75.757,63.534Z" transform="translate(29.756 28.908)" fill="#1a1a1a"/>
          <path id="Path_5992" data-name="Path 5992" d="M70.083,62.131a6.466,6.466,0,1,1-1.894-4.588A6.481,6.481,0,0,1,70.083,62.131Z" transform="translate(31.238 30.434)" fill="#666"/>
          <path id="Path_5993" data-name="Path 5993" d="M63.776,69.283a6.976,6.976,0,1,1,6.976-6.976,6.976,6.976,0,0,1-6.976,6.976Zm0-12.963a5.963,5.963,0,1,1,0,.046Z" transform="translate(31.063 30.259)" fill="gray"/>
          <path id="Path_5994" data-name="Path 5994" d="M40.148,64.059A11.849,11.849,0,1,1,28.3,52.21,11.849,11.849,0,0,1,40.148,64.059Z" transform="translate(8.996 28.553)" fill="#333"/>
          <path id="Path_5995" data-name="Path 5995" d="M38.547,63.534A10.674,10.674,0,1,1,27.874,52.86,10.673,10.673,0,0,1,38.547,63.534Z" transform="translate(9.406 28.908)" fill="#1a1a1a"/>
          <path id="Path_5996" data-name="Path 5996" d="M32.883,62.131A6.481,6.481,0,1,1,26.4,55.65,6.481,6.481,0,0,1,32.883,62.131Z" transform="translate(10.894 30.434)" fill="#666"/>
          <path id="Path_5997" data-name="Path 5997" d="M26.576,69.283a6.976,6.976,0,1,1,6.976-6.976A6.976,6.976,0,0,1,26.576,69.283Zm0-12.963a5.963,5.963,0,1,1,0,.046Z" transform="translate(10.719 30.259)" fill="gray"/>
          <rect id="Rectangle_1048" data-name="Rectangle 1048" width="44.086" height="18.346" rx="3.19" transform="translate(179.531 69.192)" fill="#1a1a1a"/>
          <rect id="Rectangle_1049" data-name="Rectangle 1049" width="58.348" height="17.279" transform="translate(201.466 81.768)" fill="gray"/>
          <rect id="Rectangle_1050" data-name="Rectangle 1050" width="160.366" height="21.718" rx="3.19" transform="translate(12.251 73.709)" fill="#4d4d4d"/>
          <path id="Path_5998" data-name="Path 5998" d="M184,64.059A11.849,11.849,0,1,1,172.211,52.21,11.849,11.849,0,0,1,184,64.059Z" transform="translate(87.665 28.553)" fill="#333"/>
          <path id="Path_5999" data-name="Path 5999" d="M182.428,63.534A10.689,10.689,0,1,1,171.739,52.86a10.689,10.689,0,0,1,10.689,10.674Z" transform="translate(88.076 28.908)" fill="#1a1a1a"/>
          <path id="Path_6000" data-name="Path 6000" d="M176.733,62.132a6.481,6.481,0,1,1-6.42-6.481A6.481,6.481,0,0,1,176.733,62.132Z" transform="translate(89.563 30.434)" fill="#666"/>
          <path id="Path_6001" data-name="Path 6001" d="M170.466,69.283a6.976,6.976,0,1,1,6.976-6.976A6.976,6.976,0,0,1,170.466,69.283Zm0-12.916a5.986,5.986,0,1,0,5.986,5.986A5.986,5.986,0,0,0,170.466,56.366Z" transform="translate(89.41 30.259)" fill="gray"/>
          <path id="Path_6002" data-name="Path 6002" d="M172.441,61.041a3.31,3.31,0,1,1-3.248-3.31,3.31,3.31,0,0,1,3.248,3.31Z" transform="translate(90.684 31.571)" fill="gray"/>
          <path id="Path_6003" data-name="Path 6003" d="M143.188,64.059A11.849,11.849,0,1,1,131.355,52.21a11.849,11.849,0,0,1,11.834,11.849Z" transform="translate(65.347 28.553)" fill="#333"/>
          <path id="Path_6004" data-name="Path 6004" d="M141.618,63.534A10.689,10.689,0,1,1,130.944,52.86a10.689,10.689,0,0,1,10.674,10.674Z" transform="translate(65.757 28.908)" fill="#1a1a1a"/>
          <path id="Path_6005" data-name="Path 6005" d="M135.923,62.131a6.466,6.466,0,1,1-1.888-4.582A6.481,6.481,0,0,1,135.923,62.131Z" transform="translate(67.245 30.434)" fill="#666"/>
          <path id="Path_6006" data-name="Path 6006" d="M129.632,69.283a6.976,6.976,0,1,1,6.961-6.976,6.976,6.976,0,0,1-6.961,6.976Zm0-12.963a5.963,5.963,0,1,1,0,.046Z" transform="translate(67.07 30.259)" fill="gray"/>
          <path id="Path_6007" data-name="Path 6007" d="M131.641,61.04a3.31,3.31,0,1,1-3.31-3.31A3.31,3.31,0,0,1,131.641,61.04Z" transform="translate(68.372 31.572)" fill="gray"/>
          <path id="Path_6008" data-name="Path 6008" d="M183.481,29.6V41.872a4.9,4.9,0,0,1-.866,2.784l-4.1-.449c-5.228,0-9.436-2.614-9.436-5.832v-12.5a4.8,4.8,0,0,1,3.2-1.207h6.188a4.935,4.935,0,0,1,5.012,4.935Z" transform="translate(92.467 13.491)" fill="#333"/>
          <path id="Path_6009" data-name="Path 6009" d="M199.15,32.413v14.68l-5-.557-9.281-1.005a4.951,4.951,0,0,1,.309-2.4L191,28.345a4.95,4.95,0,0,1,6.4-2.784l.418.17a17.8,17.8,0,0,1,1.33,6.683Z" transform="translate(101.085 13.792)" fill="#333"/>
          <path id="Path_6010" data-name="Path 6010" d="M194.776,42.008l-5.151-.557-5.847-4.733a1.81,1.81,0,0,1-.263-2.552,1.807,1.807,0,0,1,2.537-.263l8.059,6.559a1.81,1.81,0,0,1,.665,1.547Z" transform="translate(100.138 18.321)" fill="#1a1a1a"/>
          <path id="Path_6011" data-name="Path 6011" d="M195.565,34.765v14.68l-3.774-.4V34.765A20.867,20.867,0,0,0,187.15,22.39c-.356-.495-.742-.99-1.16-1.47h3.774c.418.48.8.975,1.176,1.47A20.852,20.852,0,0,1,195.565,34.765Z" transform="translate(101.715 11.441)" fill="#b2b2b2"/>
          <path id="Path_6012" data-name="Path 6012" d="M196.617,48.058h0V67.5a3.449,3.449,0,0,1-.464,1.763h0a3.589,3.589,0,0,1-3.094,1.81,3.094,3.094,0,0,1-.65,0,3.449,3.449,0,0,1-1.887-.99,3.573,3.573,0,0,1-1.052-2.537V48.074a3.6,3.6,0,0,1,2.088-3.248,3.481,3.481,0,0,1,1.547-.325,3.542,3.542,0,0,1,2.181.742l.356.309A3.558,3.558,0,0,1,196.617,48.058Z" transform="translate(103.618 24.336)" fill="gray"/>
          <path id="Path_6013" data-name="Path 6013" d="M195.758,48.73V65.189a3.449,3.449,0,0,1-.464,1.763l-.572-.093a4.641,4.641,0,0,1-2.3-1.268,4.842,4.842,0,0,1-1.16-1.934,4.5,4.5,0,0,1-.217-1.377V53.417a4.733,4.733,0,0,1,.82-2.645,4.641,4.641,0,0,1,3.883-2.042Z" transform="translate(104.477 26.65)" fill="#f8ef6c"/>
          <path id="Path_6014" data-name="Path 6014" d="M195.742,46.8h0v5.956h-1.686a2.985,2.985,0,0,1-2.166-.944,2.955,2.955,0,0,1-.82-2.042,2.815,2.815,0,0,1,.263-1.207,3.094,3.094,0,0,1,.619-.913,2.925,2.925,0,0,1,.48-.387,3.094,3.094,0,0,1,1.624-.464Z" transform="translate(104.493 25.594)" fill="#fff"/>
          <path id="Path_6015" data-name="Path 6015" d="M195.78,57.49V60.4a3.449,3.449,0,0,1-.464,1.763h-1.9A2.351,2.351,0,0,1,191,59.826a2.228,2.228,0,0,1,.217-.959,2.15,2.15,0,0,1,.48-.7,2.336,2.336,0,0,1,1.655-.681Z" transform="translate(104.455 31.44)" fill="#109d59"/>
          <path id="Path_6016" data-name="Path 6016" d="M186.739,44.5a1.856,1.856,0,0,1-2.119,1.547L179,45.135a1.856,1.856,0,0,1-1.547-2.119h0a1.856,1.856,0,0,1,2.135-1.547l5.6.9a1.872,1.872,0,0,1,1.547,2.135Z" transform="translate(97.037 22.665)" fill="#4d4d4d"/>
          <rect id="Rectangle_1051" data-name="Rectangle 1051" width="11.818" height="52.826" transform="translate(239.535 28.942)" fill="#999"/>
          <path id="Path_6017" data-name="Path 6017" d="M189.552,69.354a3.094,3.094,0,0,1-3.094-3.094,12.05,12.05,0,0,0-24.1,0,3.094,3.094,0,1,1-6.188,0,18.238,18.238,0,0,1,36.46,0,3.094,3.094,0,0,1-3.078,3.094Z" transform="translate(85.407 26.553)" fill="#b2b2b2"/>
          <path id="Path_6018" data-name="Path 6018" d="M148.742,69.536a3.094,3.094,0,0,1-3.094-3.094,12.05,12.05,0,0,0-24.1,0,3.094,3.094,0,1,1-6.188,0,18.222,18.222,0,1,1,36.445,0,3.094,3.094,0,0,1-3.063,3.094Z" transform="translate(63.089 26.371)" fill="#b2b2b2"/>
          <rect id="Rectangle_1052" data-name="Rectangle 1052" width="19.042" height="12.22" rx="3.19" transform="translate(268.74 34.635)" fill="#fff"/>
          <path id="Path_6019" data-name="Path 6019" d="M173.455,10.4a2,2,0,0,1-2.228,1.733l-8.4-1.083A2,2,0,0,1,161.1,8.818h0a2.011,2.011,0,0,1,2.243-1.733l8.4,1.083a1.965,1.965,0,0,1,1.717,2.228Z" transform="translate(88.092 3.866)" fill="#fff"/>
          <path id="Path_6020" data-name="Path 6020" d="M174.452,49.855a1.547,1.547,0,0,1-1.624,1.547H169.58a1.624,1.624,0,0,1-1.64-1.547h0a1.624,1.624,0,0,1,1.64-1.624H172.8a1.547,1.547,0,0,1,1.624,1.624Z" transform="translate(91.844 26.376)" fill="#fff"/>
          <rect id="Rectangle_1053" data-name="Rectangle 1053" width="39.214" height="12.483" rx="3.19" transform="translate(208.536 85.264)" fill="#b2b2b2"/>
          <rect id="Rectangle_1054" data-name="Rectangle 1054" width="30.644" height="8.709" rx="1.28" transform="translate(212.82 87.151)" fill="#ccc"/>
          <rect id="Rectangle_1055" data-name="Rectangle 1055" width="155.431" height="16.366" rx="1.28" transform="translate(14.231 76.23)" fill="#333"/>
          <rect id="Rectangle_1056" data-name="Rectangle 1056" width="234.74" height="119.788" rx="3.19" transform="translate(1.717 -40)" fill="#14955c"/>
          <path id="Path_6022" data-name="Path 6022" d="M198.549,18.979V21.81h-43.7V15.035a1.965,1.965,0,0,1,1.965-1.965l39.77,3.945a1.934,1.934,0,0,1,1.965,1.965Z" transform="translate(84.685 7.148)" fill="#666"/>
          <path id="Path_6023" data-name="Path 6023" d="M210.228,18.207a1.717,1.717,0,0,1-1.717,1.733H154.85V16.49h53.661a1.717,1.717,0,0,1,1.717,1.717Z" transform="translate(84.685 9.018)" fill="#4d4d4d"/>
        </g>
        <g id="Layer_2-4" data-name="Layer 2" transform="translate(60.598 -31.411)">
          <g id="Layer_2-5" data-name="Layer 2" transform="translate(0 0)">
            <path id="Path_5877" data-name="Path 5877" d="M16.913,9.491A1.648,1.648,0,0,1,14.9,10.773l-4.213-.855A1.648,1.648,0,0,1,9.4,7.843h0a1.648,1.648,0,0,1,2.015-1.282l4.213.855a1.648,1.648,0,0,1,1.282,2.076Z" transform="translate(47.681 33.482)" fill="#ffdec5"/>
            <path id="Path_5878" data-name="Path 5878" d="M45.464,8.308A2.87,2.87,0,0,0,44,4.584a2.808,2.808,0,0,0-3.236.733l-.427.549C38.32,8.98,28.43,22.595,12.373,18.077A11.844,11.844,0,0,0,11.64,21.5,27.779,27.779,0,0,0,45.4,8.308h.061Z" transform="translate(59.426 22.454)" fill="#506a91"/>
            <path id="Path_5879" data-name="Path 5879" d="M8.2,9.732a1.709,1.709,0,0,0,2.015,1.343l4.213-1.343a1.709,1.709,0,0,0,1.343-2.015h0A1.832,1.832,0,0,0,13.695,6.5l-4.152.916A1.709,1.709,0,0,0,8.2,9.732Z" transform="translate(41.253 33.241)" fill="#ffdec5"/>
            <path id="Path_5880" data-name="Path 5880" d="M1.695,8.222A2.808,2.808,0,0,1,3.221,4.5a2.931,2.931,0,0,1,3.236.672,3.908,3.908,0,0,1,.366.611C8.838,8.833,19.034,22.509,34.847,17.991a10.99,10.99,0,0,1,.427,3.48A27.84,27.84,0,0,1,1.756,8.345h0A.189.189,0,0,0,1.695,8.222Z" transform="translate(7.463 22.052)" fill="#506a91"/>
            <rect id="Rectangle_1037" data-name="Rectangle 1037" width="31.32" height="31.32" transform="translate(41.333 15.194)" fill="#ffb769"/>
            <rect id="Rectangle_1038" data-name="Rectangle 1038" width="24.055" height="24.055" transform="translate(44.996 18.796)" fill="#ff8812"/>
            <rect id="Rectangle_1039" data-name="Rectangle 1039" width="18.682" height="18.682" transform="translate(47.683 21.482)" fill="#ffb769"/>
            <path id="Path_5881" data-name="Path 5881" d="M17.018,21.37H11.706L5.6,20.821v.549H.9V16.73l5.922.061,10.2,2.931Z" transform="translate(4.595 85.648)" fill="#332f2d"/>
            <path id="Path_5882" data-name="Path 5882" d="M6.214,9.274A1.648,1.648,0,0,0,7.924,10.8l4.03-.366a1.526,1.526,0,0,0,1.465-1.709h0a1.526,1.526,0,0,0-1.709-1.465H7.679A1.587,1.587,0,0,0,6.214,8.969Z" transform="translate(31.7 37.24)" fill="#ffdec5"/>
            <rect id="Rectangle_1040" data-name="Rectangle 1040" width="4.823" height="4.64" transform="translate(11.144 22.077) rotate(-77.38)" fill="#ffdec5"/>
            <path id="Path_5883" data-name="Path 5883" d="M4.579,55.213h7.326V9.24H0Z" transform="translate(0 47.409)" fill="#394a63"/>
            <path id="Path_5884" data-name="Path 5884" d="M0,39.055l11.783.855L17.889,5.476,8.853,3.4Z" transform="translate(0 17.594)" fill="#637ea8"/>
            <path id="Path_5885" data-name="Path 5885" d="M2.172,5.972c-.794,3.3-.733,6.594,1.648,7.815l-.794,3.846,4.579,1.038c3.3.794,4.518-1.4,5.312-4.7h1.648l-.549-4.457.366-1.587A6.105,6.105,0,0,0,9.865.478h0A6.105,6.105,0,0,0,2.416,5Z" transform="translate(8.757 1.712)" fill="#ffdec5"/>
            <path id="Path_5886" data-name="Path 5886" d="M2.97,11.858C5.229,12.468,4.8,8.317,7.06,9.049s0,2.381,1.282,2.808.427-6.105,3.968-5.19,0-1.1,0-3.3c-2.137,1.526,1.4-2.32-1.954-3.114h0A6.105,6.105,0,0,0,2.909,4.776S.1,11,2.97,11.858Z" transform="translate(8.569 0.589)" fill="#753a13"/>
            <path id="Path_5887" data-name="Path 5887" d="M1.543,7.863a2.87,2.87,0,0,1,5.128-2.32l.305.611c1.526,3.3,9.524,18.316,26.07,16a13.371,13.371,0,0,1,0,3.48A27.779,27.779,0,0,1,1.6,7.986h0Z" transform="translate(7.493 22.411)" fill="#728eb7"/>
            <path id="Path_5888" data-name="Path 5888" d="M3.269,2.164a.611.611,0,0,0,.427.794.549.549,0,0,0,.733-.366A.549.549,0,0,0,4,1.858a.549.549,0,0,0-.733.305Z" transform="translate(16.513 9.489)" fill="#3f3f3f"/>
            <path id="Path_5889" data-name="Path 5889" d="M3.23,2l2.137.672.122-.427-2.2-.672Z" transform="translate(16.49 8.251)" fill="#3f3f3f"/>
            <path id="Path_5890" data-name="Path 5890" d="M17.018,17.34v.916H11.706L5.6,17.706v.549H.9V17.34Z" transform="translate(4.595 88.762)" fill="#635d5a"/>
            <path id="Path_5891" data-name="Path 5891" d="M2.353,2.692a1.465,1.465,0,0,0,.733,1.771A1.4,1.4,0,0,0,4.673,3.424,1.343,1.343,0,0,0,3.94,1.654,1.343,1.343,0,0,0,2.353,2.692Z" transform="translate(11.629 8.534)" fill="#ffebde"/>
            <path id="Path_5892" data-name="Path 5892" d="M2.441,2.341a.794.794,0,0,0,.427,1.1.825.825,0,0,0,.977-.672.794.794,0,0,0-.488-1.038A.794.794,0,0,0,2.441,2.341Z" transform="translate(12.029 9.006)" fill="#f2d0b8"/>
            <path id="Path_5893" data-name="Path 5893" d="M10.472.258A7.326,7.326,0,0,0,1.68,5.753l14.164,3.3A7.326,7.326,0,0,0,10.472.258Z" transform="translate(8.577 0.589)" fill="#4a6182"/>
            <rect id="Rectangle_1041" data-name="Rectangle 1041" width="0.733" height="5.19" transform="translate(23.609 9.388) rotate(-78.12)" fill="#4a6182"/>
            <path id="Path_5894" data-name="Path 5894" d="M15.15,21.42H20.4l6.166-.611v.611h4.64V16.78l-5.922.061L15.15,19.711Z" transform="translate(77.346 85.903)" fill="#332f2d"/>
            <path id="Path_5895" data-name="Path 5895" d="M18.56,9.112a1.648,1.648,0,0,1-1.771,1.465H12.76a1.648,1.648,0,0,1-1.465-1.771h0A1.648,1.648,0,0,1,13,7.341h4.03A1.648,1.648,0,0,1,18.56,9.112Z" transform="translate(57.635 37.708)" fill="#ffdec5"/>
            <rect id="Rectangle_1042" data-name="Rectangle 1042" width="4.64" height="4.823" transform="translate(97.279 18.7) rotate(-12.61)" fill="#ffdec5"/>
            <path id="Path_5896" data-name="Path 5896" d="M24.117,55.2H16.73V9.29H28.635Z" transform="translate(85.412 47.665)" fill="#394a63"/>
            <path id="Path_5897" data-name="Path 5897" d="M33.588,39.105,21.8,39.9,15.76,5.526,24.735,3.45Z" transform="translate(80.46 17.849)" fill="#637ea8"/>
            <path id="Path_5898" data-name="Path 5898" d="M27.3,6.074c.855,3.3.733,6.533-1.648,7.754l.794,3.907-4.579.977c-3.358.794-4.518-1.4-5.312-4.7H14.85l.916-4.457L15.4,8.027A6.105,6.105,0,0,1,19.612.518h0a6.105,6.105,0,0,1,7.449,4.518Z" transform="translate(75.814 1.916)" fill="#ffdec5"/>
            <path id="Path_5899" data-name="Path 5899" d="M26.164,11.847c-2.259.672-1.832-3.541-4.03-2.747s0,2.381-1.282,2.747-.427-6.105-4.03-5.19-.855-1.648-1.038-3.846C17.861,4.338,15.479,1.1,18.776.247h0a6.105,6.105,0,0,1,7.448,4.762S29.033,11.237,26.164,11.847Z" transform="translate(76.345 0.599)" fill="#753a13"/>
            <path id="Path_5900" data-name="Path 5900" d="M43.6,8.035A2.87,2.87,0,0,0,41.65,4.494a2.931,2.931,0,0,0-3.114,1.16l-.366.611c-1.526,3.358-9.524,18.316-26.009,16a11.416,11.416,0,0,0,0,3.48A27.84,27.84,0,0,0,43.6,8.035Z" transform="translate(61.408 22.728)" fill="#728eb7"/>
            <path id="Path_5901" data-name="Path 5901" d="M16.391,2.172a.549.549,0,0,1-.366.733.611.611,0,0,1-.733-.244.549.549,0,0,1,.366-.733.549.549,0,0,1,.733.244Z" transform="translate(77.875 9.787)" fill="#3f3f3f"/>
            <path id="Path_5902" data-name="Path 5902" d="M17.349,1.986l-2.137.672-.122-.366,2.137-.672Z" transform="translate(77.04 8.507)" fill="#3f3f3f"/>
            <path id="Path_5903" data-name="Path 5903" d="M15.15,17.46v.977H20.4l6.166-.611v.611h4.64V17.46Z" transform="translate(77.346 89.375)" fill="#635d5a"/>
            <path id="Path_5904" data-name="Path 5904" d="M18.479,2.612a1.277,1.277,0,1,1-2.381.916,1.343,1.343,0,0,1,.672-1.771,1.4,1.4,0,0,1,1.709.855Z" transform="translate(81.588 8.918)" fill="#ffebde"/>
            <path id="Path_5905" data-name="Path 5905" d="M17.548,2.454c0,.488,0,.977-.427,1.038a.794.794,0,0,1-.977-.611.855.855,0,0,1,.427-1.1C16.938,1.66,17.365,1.966,17.548,2.454Z" transform="translate(82.091 9.199)" fill="#f2d0b8"/>
            <path id="Path_5906" data-name="Path 5906" d="M20.126.2A7.265,7.265,0,0,1,29.1,5.875l-14.225,3.3A7.326,7.326,0,0,1,20.126.2Z" transform="translate(74.69 0.039)" fill="#4a6182"/>
            <path id="Path_5907" data-name="Path 5907" d="M14.052,3.142,19.181,2.1,19,1.31l-5.067,1.1Z" transform="translate(71.117 6.924)" fill="#4a6182"/>
          </g>
        </g>
      </g>
    </g>
  </g>
</svg>
