<svg xmlns="http://www.w3.org/2000/svg" width="80.577" height="77.76" viewBox="0 0 80.577 77.76">
  <g id="Group_3845" data-name="Group 3845" transform="translate(-522.704 -32.875)">
    <path id="Path_3399" data-name="Path 3399" d="M422.215,21.87H356.8a6.013,6.013,0,0,0-6.013,6.013V74.678a6.013,6.013,0,0,0,3.172,5.336l-6.133,17.392a1.669,1.669,0,0,0,2.646,1.834l22.217-18.489h49.606a6.013,6.013,0,0,0,6.013-6.013V27.943a6.013,6.013,0,0,0-6.088-6.073Z" transform="translate(174.978 11.005)" fill="#d054e2" opacity="0.66"/>
    <circle id="Ellipse_79" data-name="Ellipse 79" cx="18.519" cy="18.519" r="18.519" transform="translate(537.104 57.951) rotate(-34.94)" fill="#a15edd"/>
    <path id="_ionicons_svg_md-pin" d="M104.571,32A8.512,8.512,0,0,0,96,40.4c0,6.3,8.571,15.6,8.571,15.6s8.571-9.3,8.571-15.6A8.512,8.512,0,0,0,104.571,32Zm0,11.4a3,3,0,1,1,3.061-3A3,3,0,0,1,104.571,43.4Z" transform="translate(458 19)" fill="#fff"/>
  </g>
</svg>
