<svg xmlns="http://www.w3.org/2000/svg" width="77.43" height="85.014" viewBox="0 0 77.43 85.014">
  <defs>
    <style>
      .cls-1 {
        fill: #d054e2;
        opacity: 0.66;
      }

      .cls-2 {
        fill: #a15edd;
      }

      .cls-3 {
        fill: #fff;
      }
    </style>
  </defs>
  <g id="Group_3846" data-name="Group 3846" transform="translate(-113.477 -22.849)">
    <path id="Path_3405" data-name="Path 3405" class="cls-1" d="M146.907,15.2H81.5a6.013,6.013,0,0,0-6.013,6.013v46.87A6.013,6.013,0,0,0,81.5,74.1h31.222L127.08,99.65a1.082,1.082,0,0,0,2.029-.6L127.471,74.02h19.436a6.013,6.013,0,0,0,6.013-6.013V21.273a6.013,6.013,0,0,0-6.013-6.073Z" transform="translate(37.987 7.649)"/>
    <circle id="Ellipse_95" data-name="Ellipse 95" class="cls-2" cx="18.519" cy="18.519" r="18.519" transform="translate(126.104 46.951) rotate(-34.94)"/>
    <path id="Path_3406" data-name="Path 3406" class="cls-3" d="M115.2,29.943v13.2a1.5,1.5,0,0,1-1.5,1.51H92.475A1.5,1.5,0,0,1,91,43.14v-13.2a2.114,2.114,0,0,1,0-.283l10.8,6.086a2.606,2.606,0,0,0,2.559,0l10.791-6.086A.778.778,0,0,1,115.2,29.943Z" transform="translate(48.79 16.06)"/>
    <path id="Path_3407" data-name="Path 3407" class="cls-3" d="M115.165,28.181l-10.791,6.074a2.606,2.606,0,0,1-2.559,0L91,28.181V28.11a1.451,1.451,0,0,1,.484-.79,1.3,1.3,0,0,1,.826-.33h21.37A1.486,1.486,0,0,1,115.165,28.181Z" transform="translate(48.791 15.581)"/>
  </g>
</svg>
