<svg xmlns="http://www.w3.org/2000/svg" width="35.643" height="20.237" viewBox="0 0 35.643 20.237">
  <g id="money" transform="translate(0 -110.65)">
    <g id="Group_3793" data-name="Group 3793" transform="translate(0 110.65)">
      <g id="Group_3792" data-name="Group 3792" transform="translate(0 0)">
        <path id="Path_3431" data-name="Path 3431" d="M34.877,110.65H.766a.766.766,0,0,0-.766.766v18.7a.766.766,0,0,0,.766.766h34.11a.766.766,0,0,0,.766-.766v-18.7A.766.766,0,0,0,34.877,110.65ZM1.532,112.182h3.89a4.73,4.73,0,0,1-3.89,3.89v-3.89Zm0,17.172v-3.89a4.73,4.73,0,0,1,3.89,3.89Zm32.578,0h-3.89a4.73,4.73,0,0,1,3.89-3.89Zm0-5.436a6.261,6.261,0,0,0-5.436,5.436H6.969a6.261,6.261,0,0,0-5.436-5.436v-6.3a6.261,6.261,0,0,0,5.436-5.436H28.674a6.261,6.261,0,0,0,5.436,5.436v6.3Zm0-7.847a4.729,4.729,0,0,1-3.89-3.889h3.89Z" transform="translate(0 -110.65)"/>
      </g>
    </g>
    <g id="Group_3795" data-name="Group 3795" transform="translate(7.302 115.247)">
      <g id="Group_3794" data-name="Group 3794">
        <path id="Path_3432" data-name="Path 3432" d="M125.236,178.909a1.534,1.534,0,0,1-1.532-1.532.689.689,0,0,0-.69-.69H107.8a.689.689,0,0,0-.69.69,1.534,1.534,0,0,1-1.532,1.532.689.689,0,0,0-.69.69v5.22a.689.689,0,0,0,.69.69,1.534,1.534,0,0,1,1.532,1.532.689.689,0,0,0,.69.69h15.217a.689.689,0,0,0,.69-.69,1.534,1.534,0,0,1,1.532-1.532.689.689,0,0,0,.69-.69V179.6A.689.689,0,0,0,125.236,178.909Zm-.69,5.3a2.922,2.922,0,0,0-2.139,2.139h-14a2.922,2.922,0,0,0-2.139-2.139v-4.006a2.922,2.922,0,0,0,2.139-2.139h14a2.922,2.922,0,0,0,2.139,2.139v4.006Z" transform="translate(-104.886 -176.687)"/>
      </g>
    </g>
    <g id="Group_3797" data-name="Group 3797" transform="translate(13.486 117.601)">
      <g id="Group_3796" data-name="Group 3796" transform="translate(0 0)">
        <path id="Path_3433" data-name="Path 3433" d="M195.443,210.5h-1.035a.69.69,0,0,0,0,1.379h.345v4.266a.69.69,0,0,0,1.379,0v-4.956A.69.69,0,0,0,195.443,210.5Z" transform="translate(-193.719 -210.503)"/>
      </g>
    </g>
    <g id="Group_3799" data-name="Group 3799" transform="translate(17.568 117.601)">
      <g id="Group_3798" data-name="Group 3798" transform="translate(0 0)">
        <path id="Path_3434" data-name="Path 3434" d="M256.225,210.5h-3.171a.689.689,0,0,0-.69.69v4.956a.689.689,0,0,0,.69.69h3.171a.689.689,0,0,0,.69-.69v-4.956A.69.69,0,0,0,256.225,210.5Zm-.69,4.955h-1.792v-3.576h1.792Z" transform="translate(-252.365 -210.503)"/>
      </g>
    </g>
  </g>
</svg>
