<svg xmlns="http://www.w3.org/2000/svg" width="731.544" height="499.014" viewBox="0 0 731.544 499.014">
  <defs>
    <style>
      .cls-1 {
        fill: #ff8d3e;
      }

      .cls-2 {
        fill: #494f63;
      }

      .cls-3 {
        fill: #ffb106;
      }

      .cls-4 {
        fill: #1e222f;
      }

      .cls-5 {
        fill: #fff4d3;
      }

      .cls-6 {
        fill: #7591da;
      }

      .cls-7 {
        fill: #374873;
      }

      .cls-8 {
        fill: #bd3b3a;
      }

      .cls-9 {
        fill: #5d1d1d;
      }

      .cls-10 {
        fill: #4f68a7;
      }

      .cls-11 {
        fill: #2e0e0e;
      }

      .cls-12 {
        fill: #cb4a4a;
      }

      .cls-13 {
        fill: #aa3131;
      }

      .cls-14 {
        fill: #491515;
      }

      .cls-15 {
        fill: #94350d;
      }

      .cls-16 {
        fill: #561919;
      }

      .cls-17 {
        fill: #b74e4e;
      }

      .cls-18 {
        fill: #e0b4b4;
      }

      .cls-19 {
        fill: #ffd861;
      }

      .cls-20 {
        fill: #b96e6e;
      }

      .cls-21 {
        fill: #743030;
      }

      .cls-22 {
        fill: #bce2ff;
      }

      .cls-23 {
        fill: #314170;
      }

      .cls-24 {
        fill: #182038;
      }

      .cls-25 {
        fill: #f2f9ff;
      }

      .cls-26 {
        fill: #ecbe33;
      }

      .cls-27 {
        fill: #45afff;
      }

      .cls-28 {
        fill: #34a6ff;
      }

      .cls-29 {
        fill: #353947;
      }

      .cls-30 {
        fill: #020203;
      }

      .cls-31 {
        fill: #864900;
      }

      .cls-32 {
        fill: #71fffe;
      }

      .cls-33 {
        fill: #ffd16d;
      }

      .cls-34 {
        fill: #db7800;
      }

      .cls-35 {
        fill: #ffcf65;
      }

      .cls-36 {
        fill: #fff;
      }

      .cls-37 {
        fill: #623600;
      }

      .cls-38 {
        fill: #f18400;
      }

      .cls-39 {
        fill: #9a5400;
      }

      .cls-40 {
        fill: #462700;
      }

      .cls-41 {
        fill: #ba002f;
      }

      .cls-42 {
        fill: #1a1c23;
      }

      .cls-43 {
        fill: #777f9a;
      }

      .cls-44 {
        fill: #d0d2dc;
      }

      .cls-45 {
        fill: #2c8fb7;
      }

      .cls-46 {
        fill: #d2f2ff;
      }

      .cls-47 {
        fill: #8ac9e2;
      }

      .cls-48 {
        fill: #206784;
      }

      .cls-49 {
        fill: #82dbff;
      }

      .cls-50 {
        fill: #007cae;
      }

      .cls-51 {
        fill: #005172;
      }

      .cls-52 {
        fill: #fefffe;
      }

      .cls-53 {
        fill: #ebd38b;
      }

      .cls-54 {
        fill: #792701;
      }

      .cls-55 {
        fill: #1e0a00;
      }

      .cls-56 {
        fill: #3e1401;
      }

      .cls-57 {
        fill: #ffbf00;
      }

      .cls-58 {
        fill: #373c4b;
      }

      .cls-59 {
        fill: #9aa0b4;
      }

      .cls-60 {
        fill: rgba(0,0,0,0.37);
      }

      .cls-61 {
        fill: #383838;
      }

      .cls-62 {
        fill: #8b8b8b;
      }

      .cls-63 {
        fill: #4ec76c;
      }

      .cls-64 {
        fill: #700;
      }

      .cls-65 {
        fill: #5b4f4f;
      }

      .cls-66 {
        fill: #ea2d2d;
      }

      .cls-67 {
        fill: #a0a0a0;
      }
    </style>
  </defs>
  <g id="Layer_2" data-name="Layer 2" transform="translate(-71 -47)">
    <g id="Layer_1" data-name="Layer 1" transform="translate(71 47)">
      <g id="Layer1">
        <path id="Path_3171" data-name="Path 3171" class="cls-1" d="M1039.115,432.4l77.316-44.641L697,145.59" transform="translate(-384.887 -80.396)"/>
        <path id="Path_3172" data-name="Path 3172" class="cls-2" d="M0,401.974,399.612,632.691,676.559,472.8,276.947,242.08Z" transform="translate(0 -133.678)"/>
        <path id="Path_3173" data-name="Path 3173" class="cls-3" d="M341.654,279.442,64.706,439.332l-8.436-4.868L333.217,274.57Z" transform="translate(-31.073 -151.619)"/>
        <path id="Path_3174" data-name="Path 3174" class="cls-4" d="M1210.542,583.905l-76.573,44.206H1033.148L967,443.28Z" transform="translate(-533.983 -244.782)"/>
        <path id="Path_3175" data-name="Path 3175" class="cls-5" d="M447.47,190.63V316.089l298.791,172.49V363.134Z" transform="translate(-247.095 -105.267)"/>
        <path id="Path_3176" data-name="Path 3176" class="cls-6" d="M635.39,475.95v-83.8l85.959,49.638v83.791Z" transform="translate(-350.866 -216.547)"/>
        <path id="Path_3177" data-name="Path 3177" class="cls-7" d="M647.27,489.624V411.35l75.319,43.485v78.279Z" transform="translate(-357.426 -227.15)"/>
        <path id="Path_3178" data-name="Path 3178" class="cls-8" d="M727.073,457.4v74.074L655.39,490.092V416Z" transform="translate(-361.91 -229.718)"/>
        <path id="Path_3179" data-name="Path 3179" class="cls-9" d="M727.073,464.765v2.906L655.39,426.286V423.38Z" transform="translate(-361.91 -233.793)"/>
        <path id="Path_3180" data-name="Path 3180" class="cls-9" d="M727.073,480.025v2.9L655.39,441.542v-2.9Z" transform="translate(-361.91 -242.219)"/>
        <path id="Path_3181" data-name="Path 3181" class="cls-9" d="M727.073,495.275v2.906L655.39,456.8V453.89Z" transform="translate(-361.91 -250.641)"/>
        <path id="Path_3182" data-name="Path 3182" class="cls-9" d="M727.073,510.535v2.9L655.39,472.052v-2.9Z" transform="translate(-361.91 -259.067)"/>
        <path id="Path_3183" data-name="Path 3183" class="cls-9" d="M727.073,525.785v2.906L655.39,487.306V484.4Z" transform="translate(-361.91 -267.488)"/>
        <path id="Path_3184" data-name="Path 3184" class="cls-9" d="M727.073,541.035v2.906L655.39,502.556V499.65Z" transform="translate(-361.91 -275.91)"/>
        <path id="Path_3185" data-name="Path 3185" class="cls-9" d="M727.073,556.3V559.2L655.39,517.816V514.91Z" transform="translate(-361.91 -284.336)"/>
        <path id="Path_3186" data-name="Path 3186" class="cls-9" d="M727.073,571.545v2.906L655.39,533.066V530.16Z" transform="translate(-361.91 -292.757)"/>
        <path id="Path_3187" data-name="Path 3187" class="cls-9" d="M727.073,586.805v2.906L655.39,548.326V545.42Z" transform="translate(-361.91 -301.184)"/>
        <path id="Path_3188" data-name="Path 3188" class="cls-9" d="M727.073,602.055v2.906L655.39,563.576V560.67Z" transform="translate(-361.91 -309.605)"/>
        <path id="Path_3189" data-name="Path 3189" class="cls-9" d="M727.073,617.315v2.906L655.39,578.836V575.93Z" transform="translate(-361.91 -318.032)"/>
        <path id="Path_3190" data-name="Path 3190" class="cls-10" d="M650.906,581.46l-3.636,2.1,75.319,43.49v-4.2Z" transform="translate(-357.426 -321.085)"/>
        <path id="Path_3191" data-name="Path 3191" class="cls-6" d="M872.4,612.8V529l85.977,49.629v83.814Z" transform="translate(-481.744 -292.117)"/>
        <path id="Path_3192" data-name="Path 3192" class="cls-7" d="M884.28,626.463V548.18L959.6,591.67v78.274Z" transform="translate(-488.304 -302.708)"/>
        <path id="Path_3193" data-name="Path 3193" class="cls-8" d="M964.083,594.265v74.07L892.4,626.95V552.88Z" transform="translate(-492.788 -305.303)"/>
        <path id="Path_3194" data-name="Path 3194" class="cls-9" d="M964.083,601.605v2.9L892.4,563.122v-2.9Z" transform="translate(-492.788 -309.357)"/>
        <path id="Path_3195" data-name="Path 3195" class="cls-9" d="M964.083,616.877v2.906L892.4,578.416V575.51Z" transform="translate(-492.788 -317.8)"/>
        <path id="Path_3196" data-name="Path 3196" class="cls-9" d="M964.083,632.115v2.9L892.4,593.632v-2.9Z" transform="translate(-492.788 -326.204)"/>
        <path id="Path_3197" data-name="Path 3197" class="cls-9" d="M964.083,647.376v2.906L892.4,608.9V606Z" transform="translate(-492.788 -334.637)"/>
        <path id="Path_3198" data-name="Path 3198" class="cls-9" d="M964.083,662.625v2.9L892.4,624.142v-2.9Z" transform="translate(-492.788 -343.052)"/>
        <path id="Path_3199" data-name="Path 3199" class="cls-11" d="M964.083,677.875V714.5L892.4,673.12V636.49Z" transform="translate(-492.788 -351.473)"/>
        <path id="Path_3200" data-name="Path 3200" d="M924.132,654.8,892.41,673.124V636.49Z" transform="translate(-492.794 -351.473)"/>
        <path id="Path_3201" data-name="Path 3201" class="cls-10" d="M887.916,718.29l-3.636,2.1L959.6,763.88v-4.2Z" transform="translate(-488.304 -396.644)"/>
        <path id="Path_3202" data-name="Path 3202" class="cls-12" d="M1114.72,631.584l108.653-62.691V449.6L1114.72,512.332Z" transform="translate(-615.555 -248.272)"/>
        <path id="Path_3203" data-name="Path 3203" class="cls-13" d="M1114.72,512.332,1223.373,449.6V568.892l-6.184,3.582-102.469-59.2Z" transform="translate(-615.555 -248.272)"/>
        <path id="Path_3204" data-name="Path 3204" class="cls-14" d="M1321.607,496.35v6.48l-15.726,9.077v-6.05Z" transform="translate(-721.114 -274.087)"/>
        <path id="Path_3205" data-name="Path 3205" class="cls-15" d="M1305.84,507.243v4.066l13.882-8.007V498.86Z" transform="translate(-721.092 -275.473)"/>
        <path id="Path_3206" data-name="Path 3206" class="cls-14" d="M1269.007,526.69v6.48l-15.727,9.077V536.2Z" transform="translate(-692.068 -290.841)"/>
        <path id="Path_3207" data-name="Path 3207" class="cls-15" d="M1253.28,537.583v4.066l13.882-8.007V529.2Z" transform="translate(-692.068 -292.227)"/>
        <path id="Path_3208" data-name="Path 3208" class="cls-14" d="M1216.457,557v6.493l-15.727,9.077v-6.05Z" transform="translate(-663.05 -307.578)"/>
        <path id="Path_3209" data-name="Path 3209" class="cls-15" d="M1200.73,567.923v4.066l13.882-8.007V559.54Z" transform="translate(-663.05 -308.981)"/>
        <path id="Path_3210" data-name="Path 3210" class="cls-14" d="M1163.907,587.37v6.48l-15.727,9.077v-6.05Z" transform="translate(-634.031 -324.349)"/>
        <path id="Path_3211" data-name="Path 3211" class="cls-15" d="M1148.18,598.263v4.066l13.882-8.007V589.88Z" transform="translate(-634.031 -325.735)"/>
        <path id="Path_3212" data-name="Path 3212" class="cls-16" d="M729.573,283.283l121.016-69.856V201.489L527.066,26.63,406.05,84.561V96.486Z" transform="translate(-224.223 -14.705)"/>
        <path id="Path_3213" data-name="Path 3213" class="cls-17" d="M729.573,283.283V271.359L527.066,26.63,406.05,84.561V96.486Z" transform="translate(-224.223 -14.705)"/>
        <path id="Path_3214" data-name="Path 3214" class="cls-18" d="M729.573,256.653,850.589,186.8,527.066,0,406.05,69.856Z" transform="translate(-224.223)"/>
        <path id="Path_3215" data-name="Path 3215" class="cls-5" d="M748.636,258.73,854.19,197.79,546.13,19.93,440.58,80.861Z" transform="translate(-243.291 -11.005)"/>
        <path id="Path_3216" data-name="Path 3216" class="cls-19" d="M748.636,258.73,546.13,37.206V19.93L440.58,80.861Z" transform="translate(-243.291 -11.005)"/>
        <path id="Path_3217" data-name="Path 3217" class="cls-20" d="M857.4,225.31l-91.8,53L471.28,108.4l91.8-53.005Z" transform="translate(-260.243 -30.587)"/>
        <path id="Path_3218" data-name="Path 3218" class="cls-21" d="M779.17,193.477h34.243l17.365-10.008L786.5,157.9" transform="translate(-430.262 -87.193)"/>
        <path id="Path_3219" data-name="Path 3219" class="cls-21" d="M999.72,368.2h35l26.25-15.153L1030.21,335.29" transform="translate(-552.051 -185.149)"/>
        <path id="Path_3220" data-name="Path 3220" class="cls-21" d="M809.46,331.453l-32.519,18.772L491.83,185.62h65.042Z" transform="translate(-271.591 -102.5)"/>
        <path id="Path_3221" data-name="Path 3221" class="cls-22" d="M959.28,359.648V338.74l18.109,10.452V370.1Z" transform="translate(-529.72 -187.054)"/>
        <path id="Path_3222" data-name="Path 3222" class="cls-23" d="M1035.948,336.3V315.39L999.73,336.3V357.21Z" transform="translate(-552.057 -174.16)"/>
        <path id="Path_3223" data-name="Path 3223" class="cls-24" d="M1037.166,343.813V329l-25.686,14.831v14.813Z" transform="translate(-558.545 -181.676)"/>
        <path id="Path_3224" data-name="Path 3224" class="cls-25" d="M977.389,323.4,959.28,312.952,995.5,292.04l18.109,10.456Z" transform="translate(-529.72 -161.266)"/>
        <path id="Path_3225" data-name="Path 3225" class="cls-22" d="M1037.078,333.43l-25.685,14.831-.793-1.37,25.7-14.831Z" transform="translate(-558.059 -183.365)"/>
        <path id="Path_3226" data-name="Path 3226" class="cls-22" d="M1037.078,341.635l-25.685,14.831-.793-1.375,25.7-14.831Z" transform="translate(-558.059 -187.893)"/>
        <path id="Path_3227" data-name="Path 3227" class="cls-22" d="M1037.078,349.84l-25.685,14.831-.793-1.37,25.7-14.831Z" transform="translate(-558.059 -192.427)"/>
        <path id="Path_3228" data-name="Path 3228" class="cls-22" d="M1037.078,358.05l-25.685,14.831-.793-1.37,25.7-14.831Z" transform="translate(-558.059 -196.961)"/>
        <ellipse id="Ellipse_63" data-name="Ellipse 63" class="cls-22" cx="7.478" cy="5.047" rx="7.478" ry="5.047" transform="translate(441.024 146.156)"/>
        <ellipse id="Ellipse_64" data-name="Ellipse 64" class="cls-22" cx="7.478" cy="5.047" rx="7.478" ry="5.047" transform="translate(459.074 135.735)"/>
        <ellipse id="Ellipse_65" data-name="Ellipse 65" class="cls-23" cx="1.899" cy="1.281" rx="1.899" ry="1.281" transform="translate(446.603 149.922)"/>
        <ellipse id="Ellipse_66" data-name="Ellipse 66" class="cls-23" cx="1.899" cy="1.281" rx="1.899" ry="1.281" transform="translate(464.654 139.501)"/>
        <path id="Path_3229" data-name="Path 3229" class="cls-26" d="M635.39,358.72v6.48l15.722,9.077v-6.054Z" transform="translate(-350.866 -198.087)"/>
        <path id="Path_3230" data-name="Path 3230" class="cls-15" d="M653.392,369.592v4.057l-13.882-8.007V361.2Z" transform="translate(-353.141 -199.457)"/>
        <path id="Path_3231" data-name="Path 3231" class="cls-26" d="M470.24,263.37v6.48l15.727,9.077v-6.05Z" transform="translate(-259.669 -145.434)"/>
        <path id="Path_3232" data-name="Path 3232" class="cls-15" d="M488.242,274.263v4.066l-13.882-8.007V265.88Z" transform="translate(-261.944 -146.82)"/>
        <path id="Path_3233" data-name="Path 3233" class="cls-26" d="M687.94,389.06v6.48l15.727,9.077v-6.054Z" transform="translate(-379.884 -214.841)"/>
        <path id="Path_3234" data-name="Path 3234" class="cls-15" d="M705.942,399.948v4.07l-13.882-8.007V391.57Z" transform="translate(-382.159 -216.227)"/>
        <path id="Path_3235" data-name="Path 3235" class="cls-26" d="M522.79,293.71v6.48l15.727,9.077v-6.05Z" transform="translate(-288.688 -162.188)"/>
        <path id="Path_3236" data-name="Path 3236" class="cls-15" d="M540.792,304.592v4.057l-13.882-8.007V296.2Z" transform="translate(-290.963 -163.563)"/>
        <path id="Path_3237" data-name="Path 3237" class="cls-26" d="M740.49,419.4v6.48l15.727,9.077V428.9Z" transform="translate(-408.903 -231.595)"/>
        <path id="Path_3238" data-name="Path 3238" class="cls-15" d="M758.492,430.293v4.066l-13.882-8.007V421.91Z" transform="translate(-411.178 -232.981)"/>
        <path id="Path_3239" data-name="Path 3239" class="cls-26" d="M575.34,324.05v6.48l15.727,9.077v-6.05Z" transform="translate(-317.706 -178.942)"/>
        <path id="Path_3240" data-name="Path 3240" class="cls-15" d="M593.342,334.943v4.066L579.46,331V326.56Z" transform="translate(-319.981 -180.328)"/>
        <path id="Path_3241" data-name="Path 3241" class="cls-26" d="M793,449.74v6.48l15.727,9.077V459.26Z" transform="translate(-437.899 -248.349)"/>
        <path id="Path_3242" data-name="Path 3242" class="cls-15" d="M811.042,460.663v4.066l-13.882-8.007V452.28Z" transform="translate(-440.196 -249.752)"/>
        <path id="Path_3243" data-name="Path 3243" class="cls-26" d="M873.77,496.35v6.48l15.727,9.077v-6.05Z" transform="translate(-482.501 -274.087)"/>
        <path id="Path_3244" data-name="Path 3244" class="cls-15" d="M891.772,507.243v4.066L877.89,503.3V498.86Z" transform="translate(-484.776 -275.473)"/>
        <path id="Path_3245" data-name="Path 3245" class="cls-26" d="M926.32,526.69v6.48l15.727,9.077V536.2Z" transform="translate(-511.519 -290.841)"/>
        <path id="Path_3246" data-name="Path 3246" class="cls-15" d="M944.332,537.583v4.066l-13.882-8.007V529.2Z" transform="translate(-513.8 -292.227)"/>
        <path id="Path_3247" data-name="Path 3247" class="cls-26" d="M978.88,557v6.493l15.727,9.077v-6.05Z" transform="translate(-540.543 -307.578)"/>
        <path id="Path_3248" data-name="Path 3248" class="cls-15" d="M996.882,567.923v4.066L983,563.982V559.54Z" transform="translate(-542.818 -308.981)"/>
        <path id="Path_3249" data-name="Path 3249" class="cls-26" d="M1031.43,587.37v6.48l15.727,9.077v-6.05Z" transform="translate(-569.561 -324.349)"/>
        <path id="Path_3250" data-name="Path 3250" class="cls-15" d="M1049.432,598.263v4.066l-13.882-8.007V589.88Z" transform="translate(-571.836 -325.735)"/>
        <path id="Path_3251" data-name="Path 3251" class="cls-3" d="M1091.388,712.307,814.441,872.2,806,867.33l276.943-159.89Z" transform="translate(-445.078 -390.652)"/>
        <path id="Path_3252" data-name="Path 3252" class="cls-27" d="M959.29,366.16l18.1,10.456v8.629l-18.1-10.456Z" transform="translate(-529.725 -202.196)"/>
        <path id="Path_3253" data-name="Path 3253" class="cls-23" d="M797.279,188.218V167.31L779.17,177.762v20.912Z" transform="translate(-430.262 -92.39)"/>
        <path id="Path_3254" data-name="Path 3254" class="cls-22" d="M698.28,164.89V144L734.5,164.908V185.82Z" transform="translate(-385.594 -79.518)"/>
        <path id="Path_3255" data-name="Path 3255" class="cls-28" d="M710,172.361V157.53l25.686,14.831v14.831Z" transform="translate(-392.066 -86.989)"/>
        <path id="Path_3256" data-name="Path 3256" class="cls-25" d="M734.508,151.974l18.109-10.452L716.4,120.61,698.29,131.084Z" transform="translate(-385.6 -66.602)"/>
        <path id="Path_3257" data-name="Path 3257" class="cls-22" d="M709.16,162l25.686,14.831.793-1.37L709.953,160.63Z" transform="translate(-391.602 -88.701)"/>
        <path id="Path_3258" data-name="Path 3258" class="cls-22" d="M709.16,170.2l25.686,14.822.793-1.37L709.953,168.82Z" transform="translate(-391.602 -93.223)"/>
        <path id="Path_3259" data-name="Path 3259" class="cls-22" d="M709.16,178.393l25.686,14.831.793-1.375L709.953,177Z" transform="translate(-391.602 -97.74)"/>
        <path id="Path_3260" data-name="Path 3260" class="cls-22" d="M709.16,186.62l25.686,14.831.793-1.37L709.953,185.25Z" transform="translate(-391.602 -102.296)"/>
        <ellipse id="Ellipse_67" data-name="Ellipse 67" class="cls-22" cx="7.478" cy="5.047" rx="7.478" ry="5.047" transform="translate(340.597 69.39)"/>
        <ellipse id="Ellipse_68" data-name="Ellipse 68" class="cls-22" cx="7.478" cy="5.047" rx="7.478" ry="5.047" transform="translate(322.546 58.97)"/>
        <ellipse id="Ellipse_69" data-name="Ellipse 69" class="cls-23" cx="1.899" cy="1.281" rx="1.899" ry="1.281" transform="translate(346.172 73.161)"/>
        <ellipse id="Ellipse_70" data-name="Ellipse 70" class="cls-23" cx="1.899" cy="1.281" rx="1.899" ry="1.281" transform="translate(328.121 62.736)"/>
        <path id="Path_3261" data-name="Path 3261" class="cls-29" d="M761.485,801.039,652.053,864.228,597.87,832.949,707.315,769.77Z" transform="translate(-330.147 -425.071)"/>
        <path id="Path_3262" data-name="Path 3262" class="cls-30" d="M751.94,912.307a10.989,10.989,0,0,0-5.49,9.511h0a3.627,3.627,0,0,0,1.791,3.135c1.12.649,4.07,2.687,5.19,2.042l-1.563-2.042a10.989,10.989,0,0,0,5.485-9.516h0a3.623,3.623,0,0,0-5.432-3.135Z" transform="translate(-412.194 -503.511)"/>
        <path id="Path_3263" data-name="Path 3263" class="cls-30" d="M884.9,835.553a10.989,10.989,0,0,0-5.49,9.511h0a3.623,3.623,0,0,0,1.818,3.135c1.115.649,4.066,2.687,5.186,2.042l-1.563-2.042a10.989,10.989,0,0,0,5.49-9.511h0a3.623,3.623,0,0,0-5.432-3.135Z" transform="translate(-485.615 -461.13)"/>
        <path id="Path_3264" data-name="Path 3264" class="cls-31" d="M884.377,781.1,850.56,761.577s-2.929-2.1-8.369,0c-.036,3.735,0,3.762,0,3.762l32.326,19.94" transform="translate(-465.053 -420.03)"/>
        <path id="Path_3265" data-name="Path 3265" class="cls-3" d="M856.952,782.855,822.176,762.78l-16.246,9.377,34.776,20.079Z" transform="translate(-445.039 -421.211)"/>
        <path id="Path_3266" data-name="Path 3266" class="cls-32" d="M828.436,779.761,793.66,759.687,769,748.68l36.719,23.169,13.04,5.571" transform="translate(-424.646 -413.425)"/>
        <path id="Path_3267" data-name="Path 3267" class="cls-33" d="M745.349,773.928l-54.631,31.552L647,780.237l54.631-31.547Z" transform="translate(-357.277 -413.431)"/>
        <path id="Path_3268" data-name="Path 3268" class="cls-3" d="M677.064,843.961l-11.643,19.345L621,837.656l11.643-18.516Z" transform="translate(-342.92 -452.334)"/>
        <path id="Path_3269" data-name="Path 3269" class="cls-34" d="M677.849,848.321,668.4,864.03,628.69,841.107l9.457-15.037Z" transform="translate(-347.166 -456.16)"/>
        <path id="Path_3270" data-name="Path 3270" class="cls-32" d="M680.45,849.3l-8.768,14.571L633.4,841.762l8.777-13.922Z" transform="translate(-349.767 -457.138)"/>
        <path id="Path_3271" data-name="Path 3271" class="cls-35" d="M665.421,886.14V902.56L621,876.911V860.49Z" transform="translate(-342.92 -475.167)"/>
        <path id="Path_3272" data-name="Path 3272" class="cls-36" d="M671.7,845.89l7.08,3.994a15.547,15.547,0,0,0-9.054,1.67c-3.435,1.836-4.975,6.13-9.153,7.268l-11.875-6.842a14.983,14.983,0,0,1,4.478,1.258l.309.139c2.351,1.03,5.091,1.818,7.254.39,2.046-1.343,3.135-3.77,5.208-5.257A16.9,16.9,0,0,1,671.7,845.89Zm-13.434-7.572,5.911,3.336a15.153,15.153,0,0,0-5.924,1.72c-3.444,1.836-4.975,6.144-9.171,7.272a8.447,8.447,0,0,1-2.19.287L634.35,843.7a15.336,15.336,0,0,1,7.348,1.343c.152.063.152.063.3.134,2.351,1.026,5.091,1.818,7.259.39,2.042-1.343,3.135-3.775,5.208-5.257a15.707,15.707,0,0,1,3.806-1.988Zm-13.179-7.438,5.262,2.969a14.618,14.618,0,0,0-3.551,1.343c-3.443,1.836-4.979,6.139-9.175,7.277a9.175,9.175,0,0,1-3.242.242l3.282-5.221a1.468,1.468,0,0,0,.139-.09c2.051-1.343,3.135-3.775,5.212-5.262a15.946,15.946,0,0,1,2.087-1.258Z" transform="translate(-350.292 -458.817)"/>
        <path id="Path_3273" data-name="Path 3273" class="cls-34" d="M862.19,820.806l26.671-15.4a6.717,6.717,0,0,1,10.089,5.821v2.476L862.19,834.929Z" transform="translate(-476.106 -444.251)"/>
        <path id="Path_3274" data-name="Path 3274" class="cls-34" d="M802.056,810.285l8.436-4.868a6.717,6.717,0,0,1,10.093,5.821v2.467l-3.135,1.818L720.28,871.642V855.226l11.643-19.345,53.923-31.131Z" transform="translate(-397.743 -444.253)"/>
        <path id="Path_3275" data-name="Path 3275" class="cls-37" d="M753.81,833.021v12.337L729.84,859.194l9.892-18.06Zm3.1-1.791,14.329-8.275v12.359l-14.329,8.275Zm32.644-18.852a2.436,2.436,0,0,1,2.526.054l8.916,5.669-26.868,15.521V822.694a2.445,2.445,0,0,1,1.214-2.109Z" transform="translate(-403.022 -448.419)"/>
        <path id="Path_3276" data-name="Path 3276" class="cls-32" d="M754.12,844.62,732.2,857.266l8.835-16.121,13.085-7.55Zm17.433-10.062-13.34,7.7V831.249l13.34-7.7Zm3.869-2.239v-9.605a2.445,2.445,0,0,1,1.214-2.109l14.222-8.208a2.436,2.436,0,0,1,2.526.054l7.832,4.962Z" transform="translate(-404.325 -448.43)"/>
        <path id="Path_3277" data-name="Path 3277" class="cls-36" d="M742.229,847.348a2.024,2.024,0,0,1,.2.139c1.594,1.146,2.436,3.014,4.03,4.03a.989.989,0,0,0,.134.085l-3.184,1.845a37.842,37.842,0,0,0-2.911-2.955Zm6.054-7.72a12.224,12.224,0,0,1,2.969,1.563c1.59,1.137,2.436,3.009,4.03,4.03a3.753,3.753,0,0,0,1.433.546l-3.65,2.1c-1.675-1.343-2.812-3.341-4.706-4.348a11.485,11.485,0,0,0-3.376-1.169l.658-1.2Zm14.513-1.836a6.908,6.908,0,0,0,1.285,1.142,4.643,4.643,0,0,0,3.936.309l-5.208,3h0Zm-4.478-3.954c.13.067.264.13.394.2v4.335a7.284,7.284,0,0,0-1.545-1.137,11.8,11.8,0,0,0-2.893-1.07Zm9.892-5.714c.233.148.448.3.69.448,1.59,1.146,2.432,3.018,4.03,4.03a4.219,4.219,0,0,0,3.233.475v1.446l-3.318,1.912c-3.067-.958-4.25-4.151-6.838-5.535a12.071,12.071,0,0,0-1.5-.663Zm11.8,4.2v-.578a11.242,11.242,0,0,1,1.746-.412Zm.26-10.7c1.419,1.151,2.239,2.866,3.735,3.838,1.67,1.093,3.779.488,5.588-.3l.233-.107a11.8,11.8,0,0,1,4.63-1.061l-9.587,5.512c-.246-.04-.488-.09-.739-.152A8.752,8.752,0,0,1,780,826.333V822.7a2.41,2.41,0,0,1,.26-1.079Zm9.323-5.848c1.133,1.115,1.935,2.53,3.233,3.385,1.67,1.1,3.775.488,5.588-.3l.233-.1a12.091,12.091,0,0,1,6.538-.967l-9.386,5.45a7.25,7.25,0,0,1-2.83-.152c-3.067-.824-4.285-3.856-6.672-5.374Zm6.5-3.636a2.444,2.444,0,0,1,1.876.314l6.945,4.415a7.387,7.387,0,0,1-3.135-.107c-2.624-.69-3.9-3.014-5.7-4.621Z" transform="translate(-408.908 -448.43)"/>
        <path id="Path_3278" data-name="Path 3278" class="cls-37" d="M617.687,890.27l44.435,25.65-2.687,1.545L615,891.815Z" transform="translate(-339.606 -491.612)"/>
        <path id="Path_3279" data-name="Path 3279" class="cls-38" d="M615,893.72v3.085l44.426,25.65V919.37Z" transform="translate(-339.606 -493.517)"/>
        <path id="Path_3280" data-name="Path 3280" class="cls-39" d="M716.887,950.635,714.2,952.18v-3.085l2.687-1.545Z" transform="translate(-394.385 -523.242)"/>
        <path id="Path_3281" data-name="Path 3281" class="cls-40" d="M820,811.441a6.448,6.448,0,0,1,.34,1c-21.011,12.2-52.84,30.705-73.058,42.146a3.663,3.663,0,0,1-3.412.04,3.456,3.456,0,0,0-.793-.336,2.615,2.615,0,0,0-1.9.269L720.2,866.677v-1.182c6.829-3.963,13.644-7.948,20.518-11.844a3.677,3.677,0,0,1,3.412-.036l.2.112a2.62,2.62,0,0,0,2.5-.049Zm-1.142-1.791a6.414,6.414,0,0,1,.636.846c-21.011,12.193-52.253,30.365-72.211,41.645a3.676,3.676,0,0,1-3.412.04,3.373,3.373,0,0,0-.793-.34,2.62,2.62,0,0,0-1.9.273L720.2,864.2v-1.187c6.829-3.958,13.644-7.944,20.518-11.835a3.676,3.676,0,0,1,3.412-.045l.2.116a2.642,2.642,0,0,0,2.5-.045Z" transform="translate(-397.698 -447.093)"/>
        <path id="Path_3282" data-name="Path 3282" class="cls-41" d="M715.142,933.353V922.978l-1.648-.949a1.634,1.634,0,0,0-2.454,1.419v7.536Z" transform="translate(-392.64 -509.027)"/>
        <path id="Path_3283" data-name="Path 3283" class="cls-36" d="M715.142,938.263v-5.19l-4.1-2.373v5.194Z" transform="translate(-392.64 -513.938)"/>
        <path id="Path_3284" data-name="Path 3284" class="cls-41" d="M625.005,879.834v-7.689a4.639,4.639,0,0,0-2.324-4.03l-1.791-1.025v10.371Z" transform="translate(-342.859 -478.812)"/>
        <path id="Path_3285" data-name="Path 3285" class="cls-36" d="M625.022,886.245v-5.172l-4.1-2.373v5.19Z" transform="translate(-342.876 -485.223)"/>
        <path id="Path_3286" data-name="Path 3286" class="cls-40" d="M666.695,898.031l-.506.9L638.47,882.9l.51-.9Z" transform="translate(-352.567 -487.045)"/>
        <path id="Path_3287" data-name="Path 3287" class="cls-40" d="M666.695,904.854l-.506.9-27.719-16,.51-.9Z" transform="translate(-352.567 -490.828)"/>
        <path id="Path_3288" data-name="Path 3288" class="cls-40" d="M666.695,911.654l-.506.9-27.719-16,.51-.9Z" transform="translate(-352.567 -494.583)"/>
        <path id="Path_3289" data-name="Path 3289" class="cls-42" d="M756.853,918.874a6.717,6.717,0,0,0-3.363,5.821h0a5.047,5.047,0,0,0,7.568,4.366h0a6.717,6.717,0,0,0,3.363-5.821h0a5.042,5.042,0,0,0-7.568-4.366Z" transform="translate(-416.081 -507.033)"/>
        <path id="Path_3290" data-name="Path 3290" class="cls-42" d="M889.783,842.167a6.717,6.717,0,0,0-3.363,5.821h0a5.047,5.047,0,0,0,7.568,4.366h0a6.717,6.717,0,0,0,3.363-5.821h0a5.042,5.042,0,0,0-7.563-4.366Z" transform="translate(-489.486 -464.676)"/>
        <path id="Path_3291" data-name="Path 3291" class="cls-43" d="M762.8,924.834a4.657,4.657,0,0,0-2.324,4.03h0a1.549,1.549,0,0,0,2.324,1.343h0a4.648,4.648,0,0,0,2.324-4.03h0a1.549,1.549,0,0,0-2.324-1.343Z" transform="translate(-419.941 -510.584)"/>
        <path id="Path_3292" data-name="Path 3292" class="cls-43" d="M895.764,848.074a4.648,4.648,0,0,0-2.324,4.03h0a1.549,1.549,0,0,0,.775,1.343,1.567,1.567,0,0,0,1.549,0h0a4.657,4.657,0,0,0,2.324-4.03h0a1.549,1.549,0,0,0-2.324-1.343Z" transform="translate(-493.362 -468.197)"/>
        <path id="Path_3293" data-name="Path 3293" class="cls-44" d="M764.484,928.517a1.912,1.912,0,0,0-.954,1.657h0a.631.631,0,0,0,.318.551.645.645,0,0,0,.636,0h0a1.912,1.912,0,0,0,.958-1.652h0a.645.645,0,0,0-.318-.555.654.654,0,0,0-.64,0Z" transform="translate(-421.625 -512.686)"/>
        <path id="Path_3294" data-name="Path 3294" class="cls-44" d="M897.448,851.757a1.912,1.912,0,0,0-.958,1.652h0a.64.64,0,0,0,.958.555h0a1.912,1.912,0,0,0,.954-1.657h0a.631.631,0,0,0-.318-.551.645.645,0,0,0-.636,0Z" transform="translate(-495.047 -470.298)"/>
        <path id="Path_3295" data-name="Path 3295" class="cls-29" d="M143.42,601.02l109.432,63.188,54.183-31.278L197.59,569.75Z" transform="translate(-79.197 -314.619)"/>
        <path id="Path_3296" data-name="Path 3296" class="cls-30" d="M341.3,712.288a10.989,10.989,0,0,1,5.49,9.511h0a3.627,3.627,0,0,1-1.814,3.135c-1.119.649-4.07,2.687-5.19,2.042l1.563-2.042a10.989,10.989,0,0,1-5.485-9.516h0a3.623,3.623,0,0,1,5.432-3.135Z" transform="translate(-185.464 -393.059)"/>
        <path id="Path_3297" data-name="Path 3297" class="cls-30" d="M208.324,635.533a10.989,10.989,0,0,1,5.49,9.511h0a3.618,3.618,0,0,1-1.791,3.135c-1.119.649-4.07,2.687-5.19,2.042l1.563-2.042a10.984,10.984,0,0,1-5.485-9.511h0a3.623,3.623,0,0,1,5.432-3.135Z" transform="translate(-112.048 -350.678)"/>
        <path id="Path_3298" data-name="Path 3298" class="cls-45" d="M170.25,581.08l33.817-19.524s2.929-2.1,8.365,0c.04,3.735,0,3.762,0,3.762l-32.326,19.94" transform="translate(-94.013 -309.578)"/>
        <path id="Path_3299" data-name="Path 3299" class="cls-46" d="M186.8,582.835l34.771-20.075,16.25,9.377-34.776,20.079Z" transform="translate(-103.152 -310.759)"/>
        <path id="Path_3300" data-name="Path 3300" class="cls-32" d="M204.94,579.741l34.776-20.075,24.66-11.007-36.719,23.169-13.04,5.571" transform="translate(-113.169 -302.973)"/>
        <path id="Path_3301" data-name="Path 3301" class="cls-46" d="M240,573.878l54.631,31.552,43.714-25.242L283.714,548.64Z" transform="translate(-132.529 -302.962)"/>
        <path id="Path_3302" data-name="Path 3302" class="cls-47" d="M360.47,643.941l11.643,19.345,44.435-25.65L404.9,619.12Z" transform="translate(-199.054 -341.882)"/>
        <path id="Path_3303" data-name="Path 3303" class="cls-48" d="M368.2,648.269l9.457,15.713,39.71-22.923L407.906,626Z" transform="translate(-203.322 -345.681)"/>
        <path id="Path_3304" data-name="Path 3304" class="cls-32" d="M368.2,649.278l8.763,14.571,38.286-22.108-8.759-13.922Z" transform="translate(-203.322 -346.686)"/>
        <path id="Path_3305" data-name="Path 3305" class="cls-45" d="M386.47,686.12V702.54l44.435-25.65V660.47Z" transform="translate(-213.411 -364.715)"/>
        <path id="Path_3306" data-name="Path 3306" class="cls-36" d="M380.19,645.87l-7.08,3.994a15.556,15.556,0,0,1,9.054,1.657c3.435,1.836,4.975,6.13,9.153,7.268l11.875-6.82a14.947,14.947,0,0,0-4.478,1.258l-.309.139c-2.351,1.03-5.091,1.818-7.254.39-2.046-1.343-3.135-3.77-5.208-5.257A16.936,16.936,0,0,0,380.19,645.87Zm13.434-7.572-5.911,3.336a15.13,15.13,0,0,1,5.92,1.72c3.444,1.836,4.979,6.144,9.175,7.272a8.423,8.423,0,0,0,2.19.287l12.538-7.236a15.354,15.354,0,0,0-7.353,1.343l-.3.134c-2.351,1.026-5.091,1.818-7.259.39-2.042-1.343-3.135-3.775-5.212-5.257a15.6,15.6,0,0,0-3.8-1.988ZM406.8,630.86l-5.262,2.969a14.619,14.619,0,0,1,3.551,1.343c3.444,1.836,4.979,6.139,9.175,7.277a9.175,9.175,0,0,0,3.242.242l-3.282-5.221a1.055,1.055,0,0,1-.139-.09c-2.051-1.343-3.135-3.775-5.212-5.262a16.255,16.255,0,0,0-2.087-1.258Z" transform="translate(-206.033 -348.364)"/>
        <path id="Path_3307" data-name="Path 3307" class="cls-34" d="M199.139,620.783s-15.785-9.108-26.666-15.4a6.717,6.717,0,0,0-10.093,5.821v2.476l36.759,21.221Z" transform="translate(-89.667 -333.796)"/>
        <path id="Path_3308" data-name="Path 3308" class="cls-49" d="M180.92,610.265l-8.436-4.868a6.717,6.717,0,0,0-10.093,5.821v2.454l3.135,1.818,97.207,56.135V655.206l-11.643-19.345-53.923-31.144Z" transform="translate(-89.673 -333.801)"/>
        <path id="Path_3309" data-name="Path 3309" class="cls-50" d="M265.109,633v12.337l23.97,13.837-9.892-18.051Zm-3.1-1.791-14.329-8.275v12.328l14.329,8.275Zm-32.644-18.852a2.436,2.436,0,0,0-2.526.054l-8.92,5.669L244.788,633.6V622.674a2.44,2.44,0,0,0-1.218-2.109Z" transform="translate(-120.337 -337.967)"/>
        <path id="Path_3310" data-name="Path 3310" class="cls-32" d="M267.445,644.6l21.942,12.655-8.835-16.121-13.085-7.55Zm-17.433-10.062,13.34,7.7V631.229l-13.34-7.7Zm-3.869-2.239v-9.605a2.441,2.441,0,0,0-1.218-2.109l-14.217-8.208a2.436,2.436,0,0,0-2.526.054L220.35,617.4Z" transform="translate(-121.679 -337.978)"/>
        <path id="Path_3311" data-name="Path 3311" class="cls-36" d="M284.709,647.328a1.6,1.6,0,0,0-.2.139c-1.594,1.146-2.436,3.014-4.03,4.03l-.134.085,3.166,1.827a37.837,37.837,0,0,1,2.911-2.955Zm-6.054-7.72a12.142,12.142,0,0,0-2.969,1.563c-1.59,1.137-2.436,3.009-4.03,4.03a3.709,3.709,0,0,1-1.428.546l3.645,2.1c1.679-1.343,2.817-3.341,4.711-4.348a11.441,11.441,0,0,1,3.376-1.169l-.64-1.2Zm-14.513-1.836a6.909,6.909,0,0,1-1.285,1.142,4.642,4.642,0,0,1-3.936.309l5.2,3h0Zm4.478-3.954c-.13.067-.264.13-.394.2v4.335a7.283,7.283,0,0,1,1.545-1.137,11.736,11.736,0,0,1,2.893-1.07Zm-9.883-5.714c-.233.148-.448.3-.694.448-1.585,1.146-2.432,3.018-4.008,4.053a4.219,4.219,0,0,1-3.233.475v1.446l3.318,1.912c3.067-.958,4.25-4.151,6.838-5.535a12.042,12.042,0,0,1,1.5-.663Zm-11.781,4.2v-.569a11.24,11.24,0,0,0-1.746-.412Zm-.26-10.7c-1.424,1.151-2.239,2.866-3.735,3.838-1.67,1.093-3.779.488-5.588-.3l-.269-.125a11.8,11.8,0,0,0-4.617-1.061l9.574,5.539c.251-.04.493-.09.743-.152a8.885,8.885,0,0,0,4.129-3.018V622.69a2.467,2.467,0,0,0-.26-1.088Zm-9.323-5.848c-1.137,1.115-1.934,2.53-3.233,3.385-1.67,1.1-3.779.488-5.588-.3l-.233-.1a12.091,12.091,0,0,0-6.538-.967l9.4,5.427a7.273,7.273,0,0,0,2.835-.152c3.063-.824,4.285-3.856,6.668-5.374Zm-6.538-3.636a2.445,2.445,0,0,0-1.876.313l-6.945,4.415a7.393,7.393,0,0,0,3.135-.107C227.776,616.058,229.043,613.725,230.834,612.118Z" transform="translate(-122.468 -337.978)"/>
        <path id="Path_3312" data-name="Path 3312" class="cls-47" d="M430.9,690.25,386.47,715.9l2.687,1.545,44.43-25.65Z" transform="translate(-213.411 -381.16)"/>
        <path id="Path_3313" data-name="Path 3313" class="cls-51" d="M436.87,693.7v3.085l-44.43,25.65v-3.076Z" transform="translate(-216.708 -383.065)"/>
        <path id="Path_3314" data-name="Path 3314" class="cls-46" d="M386.47,750.626l2.687,1.545v-3.076l-2.687-1.545Z" transform="translate(-213.411 -412.801)"/>
        <path id="Path_3315" data-name="Path 3315" class="cls-50" d="M163.18,611.421a6.014,6.014,0,0,0-.34,1c21.006,12.2,52.84,30.705,73.058,42.146a3.654,3.654,0,0,0,3.408.04,3.541,3.541,0,0,1,.8-.336,2.615,2.615,0,0,1,1.9.269l20.975,12.122v-1.182c-6.833-3.963-13.649-7.948-20.518-11.844a3.686,3.686,0,0,0-3.417-.036l-.2.112a2.62,2.62,0,0,1-2.5-.036Zm1.137-1.791a6.812,6.812,0,0,0-.631.846c21.011,12.193,52.249,30.365,72.211,41.645a3.668,3.668,0,0,0,3.408.04,3.449,3.449,0,0,1,.8-.34,2.62,2.62,0,0,1,1.9.273l20.975,12.113v-1.187c-6.833-3.967-13.644-7.957-20.518-11.849a3.685,3.685,0,0,0-3.417-.045l-.2.116a2.642,2.642,0,0,1-2.5-.045Z" transform="translate(-89.921 -336.641)"/>
        <path id="Path_3316" data-name="Path 3316" class="cls-41" d="M386.47,733.333V722.958l1.648-.949a1.634,1.634,0,0,1,2.454,1.419v7.536Z" transform="translate(-213.411 -398.575)"/>
        <path id="Path_3317" data-name="Path 3317" class="cls-36" d="M386.47,738.254v-5.181l4.1-2.373v5.19Z" transform="translate(-213.411 -403.497)"/>
        <path id="Path_3318" data-name="Path 3318" class="cls-41" d="M476.59,679.819v-7.693a4.639,4.639,0,0,1,2.324-4.03l1.791-1.025v10.371Z" transform="translate(-263.176 -368.36)"/>
        <path id="Path_3319" data-name="Path 3319" class="cls-36" d="M476.59,686.241v-5.167l4.1-2.373v5.19Z" transform="translate(-263.176 -374.782)"/>
        <path id="Path_3320" data-name="Path 3320" class="cls-51" d="M405.17,698.022l.506.9L433.395,682.9l-.51-.9Q419.02,690.02,405.17,698.022Z" transform="translate(-223.737 -376.604)"/>
        <path id="Path_3321" data-name="Path 3321" class="cls-51" d="M405.17,704.834l.506.9,27.719-16-.51-.9Z" transform="translate(-223.737 -380.376)"/>
        <path id="Path_3322" data-name="Path 3322" class="cls-51" d="M405.17,711.634l.506.9,27.719-16-.51-.9Z" transform="translate(-223.737 -384.131)"/>
        <path id="Path_3323" data-name="Path 3323" class="cls-42" d="M336.363,718.856a6.717,6.717,0,0,1,3.363,5.821h0a5.047,5.047,0,0,1-7.568,4.366h0a6.717,6.717,0,0,1-3.358-5.821h0a5.038,5.038,0,0,1,7.559-4.366Z" transform="translate(-181.565 -396.583)"/>
        <path id="Path_3324" data-name="Path 3324" class="cls-42" d="M203.4,642.1a6.717,6.717,0,0,1,3.363,5.821h0a5.047,5.047,0,0,1-7.568,4.366h0a6.717,6.717,0,0,1-3.358-5.821h0A5.038,5.038,0,0,1,203.4,642.1Z" transform="translate(-108.144 -354.196)"/>
        <path id="Path_3325" data-name="Path 3325" class="cls-43" d="M338.14,724.813a4.644,4.644,0,0,1,2.329,4.03h0a1.554,1.554,0,0,1-2.329,1.343h0a4.653,4.653,0,0,1-2.32-4.03h0a1.545,1.545,0,0,1,2.32-1.343Z" transform="translate(-185.442 -400.131)"/>
        <path id="Path_3326" data-name="Path 3326" class="cls-43" d="M205.14,648.047a4.653,4.653,0,0,1,2.329,4.03h0a1.554,1.554,0,0,1-2.329,1.343h0a4.644,4.644,0,0,1-2.32-4.03h0a1.549,1.549,0,0,1,.77-1.343,1.567,1.567,0,0,1,1.549,0Z" transform="translate(-111.998 -357.742)"/>
        <path id="Path_3327" data-name="Path 3327" class="cls-44" d="M339.824,728.5a1.912,1.912,0,0,1,.958,1.652h0a.64.64,0,0,1-.958.555h0a1.921,1.921,0,0,1-.954-1.657h0a.631.631,0,0,1,.318-.551.645.645,0,0,1,.636,0Z" transform="translate(-187.126 -402.234)"/>
        <path id="Path_3328" data-name="Path 3328" class="cls-44" d="M206.824,651.725a1.925,1.925,0,0,1,.958,1.657h0a.636.636,0,0,1-.322.551.645.645,0,0,1-.636,0h0a1.908,1.908,0,0,1-.954-1.652h0a.636.636,0,0,1,.954-.555Z" transform="translate(-113.683 -359.839)"/>
        <path id="Path_3329" data-name="Path 3329" class="cls-52" d="M659.869,849.649l-9.632,5.562-9.65-5.562,1.16-2.015,8.477,4.89,8.472-4.89Zm-63.376-36.58-7.312,4.218,7.313,4.223-1.164,2.015-10.219-5.9v-.663l10.219-5.9Zm173.193-27.481v.672l-10.219,5.9-1.164-2.015,7.313-4.223-7.312-4.218,1.164-2.015ZM714.2,753.553l-1.16,2.015-8.477-4.881-8.472,4.881-1.16-2.015L704.559,748Z" transform="translate(-323.101 -413.05)"/>
        <path id="Path_3330" data-name="Path 3330" class="cls-12" d="M585.937,493.23V446.6L564.12,434v46.638Z" transform="translate(-311.51 -239.657)"/>
        <path id="Path_3331" data-name="Path 3331" class="cls-53" d="M585.937,406.009V378.483L564.12,365.9v27.512Z" transform="translate(-311.51 -202.052)"/>
        <path id="Path_3332" data-name="Path 3332" class="cls-53" d="M504.548,359.037v-27.53L465.2,308.79V336.3Z" transform="translate(-256.886 -170.516)"/>
        <path id="Path_3333" data-name="Path 3333" class="cls-12" d="M504.548,431.054V403.537L465.2,380.82v27.517Z" transform="translate(-256.886 -210.291)"/>
        <path id="Path_3334" data-name="Path 3334" class="cls-32" d="M508.3,405.7v24.382L472,409.122V384.74Z" transform="translate(-260.641 -212.456)"/>
        <path id="Path_3335" data-name="Path 3335" class="cls-54" d="M589.228,448.506v43.552L570.08,481V437.45Z" transform="translate(-314.801 -241.562)"/>
        <path id="Path_3336" data-name="Path 3336" class="cls-55" d="M583.374,513.471v12.135L578,522.525V510.39Z" transform="translate(-319.175 -281.84)"/>
        <path id="Path_3337" data-name="Path 3337" class="cls-56" d="M584.329,514V525.2l-4.6-2.651V511.35Z" transform="translate(-320.13 -282.37)"/>
        <path id="Path_3338" data-name="Path 3338" class="cls-55" d="M598.311,522.081v12.144L593,531.131V519Z" transform="translate(-327.458 -286.595)"/>
        <path id="Path_3339" data-name="Path 3339" class="cls-56" d="M599.194,522.633v11.195l-4.594-2.651V520Z" transform="translate(-328.341 -287.147)"/>
        <path id="Path_3340" data-name="Path 3340" class="cls-55" d="M583.374,481.661v12.131L578,490.711V478.58Z" transform="translate(-319.175 -264.275)"/>
        <path id="Path_3341" data-name="Path 3341" class="cls-56" d="M584.329,482.191v11.195l-4.6-2.651V479.54Z" transform="translate(-320.13 -264.805)"/>
        <path id="Path_3342" data-name="Path 3342" class="cls-55" d="M598.311,490.261V502.4L593,499.315V487.18Z" transform="translate(-327.458 -269.024)"/>
        <path id="Path_3343" data-name="Path 3343" class="cls-56" d="M599.194,490.791v11.195l-4.594-2.651V488.14Z" transform="translate(-328.341 -269.554)"/>
        <path id="Path_3344" data-name="Path 3344" class="cls-55" d="M583.374,449.841v12.131L578,458.9V446.76Z" transform="translate(-319.175 -246.703)"/>
        <path id="Path_3345" data-name="Path 3345" class="cls-56" d="M584.329,450.371v11.195l-4.6-2.651V447.72Z" transform="translate(-320.13 -247.233)"/>
        <path id="Path_3346" data-name="Path 3346" class="cls-55" d="M598.311,458.451v12.131L593,467.5V455.37Z" transform="translate(-327.458 -251.458)"/>
        <path id="Path_3347" data-name="Path 3347" class="cls-56" d="M599.194,458.981v11.195l-4.594-2.651V456.33Z" transform="translate(-328.341 -251.988)"/>
        <path id="Path_3348" data-name="Path 3348" class="cls-57" d="M566.767,534.71l-2.687,1.54L585.9,548.842v-3.076Z" transform="translate(-311.488 -295.27)"/>
        <path id="Path_3349" data-name="Path 3349" class="cls-58" d="M493.274,519.395l-31.113,17.961L379.48,489.621v-1.643l31.131-16.318,82.663,46.091Z" transform="translate(-209.551 -260.453)"/>
        <path id="Path_3350" data-name="Path 3350" class="cls-59" d="M493.274,515.73l-31.113,17.961L379.48,485.957,410.611,468Z" transform="translate(-209.551 -258.432)"/>
        <ellipse id="Ellipse_71" data-name="Ellipse 71" class="cls-60" cx="4.953" cy="2.132" rx="4.953" ry="2.132" transform="translate(238.222 235.974)"/>
        <path id="Path_3351" data-name="Path 3351" class="cls-61" d="M532,518.888s.448,2.423.77,4.281a2.548,2.548,0,0,0,2.508,2.091H538.5A2.543,2.543,0,0,0,541,523.2l.9-4.594-4.5.3" transform="translate(-293.773 -286.379)"/>
        <ellipse id="Ellipse_72" data-name="Ellipse 72" class="cls-62" cx="4.953" cy="2.132" rx="4.953" ry="2.132" transform="translate(238.222 230.139)"/>
        <ellipse id="Ellipse_73" data-name="Ellipse 73" class="cls-54" cx="3.878" cy="1.67" rx="3.878" ry="1.67" transform="translate(239.297 230.601)"/>
        <path id="Path_3352" data-name="Path 3352" class="cls-63" d="M535.365,512.756s-4.4.4-7.165-4.876C535.374,512.506,535.365,512.756,535.365,512.756Z" transform="translate(-291.675 -280.454)"/>
        <path id="Path_3353" data-name="Path 3353" class="cls-63" d="M535.365,512.756s-4.4.4-7.165-4.876C535.374,512.506,535.365,512.756,535.365,512.756Z" transform="translate(-291.675 -280.454)"/>
        <path id="Path_3354" data-name="Path 3354" class="cls-63" d="M536.518,510.31s-4.536-1.088-6.238-6.86C536.576,510.086,536.518,510.31,536.518,510.31Z" transform="translate(-292.824 -278.008)"/>
        <path id="Path_3355" data-name="Path 3355" class="cls-63" d="M538.185,508.433a11.029,11.029,0,0,1-4.885-8.383C538.293,508.245,538.185,508.433,538.185,508.433Z" transform="translate(-294.491 -276.13)"/>
        <path id="Path_3356" data-name="Path 3356" class="cls-63" d="M540.159,507.262a11.828,11.828,0,0,1-3.193-9.332C540.311,507.123,540.159,507.262,540.159,507.262Z" transform="translate(-296.47 -274.96)"/>
        <path id="Path_3357" data-name="Path 3357" class="cls-63" d="M541.881,506.886s-3.157-4.747-1.29-9.645C542.06,506.8,541.881,506.886,541.881,506.886Z" transform="translate(-298.192 -274.579)"/>
        <path id="Path_3358" data-name="Path 3358" class="cls-63" d="M543.221,507.306s-2.208-5.409.7-9.3C543.418,507.3,543.221,507.306,543.221,507.306Z" transform="translate(-299.527 -275.004)"/>
        <path id="Path_3359" data-name="Path 3359" class="cls-63" d="M544.012,508.5s-1.106-5.714,2.646-8.324C544.218,508.558,544.012,508.5,544.012,508.5Z" transform="translate(-300.323 -276.202)"/>
        <path id="Path_3360" data-name="Path 3360" class="cls-63" d="M544.21,510.415s.067-5.62,4.411-6.775C544.4,510.518,544.21,510.415,544.21,510.415Z" transform="translate(-300.516 -278.113)"/>
        <path id="Path_3361" data-name="Path 3361" class="cls-63" d="M544.21,512.865s1.24-5.145,5.875-4.769C544.38,513.039,544.21,512.865,544.21,512.865Z" transform="translate(-300.516 -280.562)"/>
        <ellipse id="Ellipse_74" data-name="Ellipse 74" class="cls-60" cx="4.953" cy="2.132" rx="4.953" ry="2.132" transform="translate(273.038 256.08)"/>
        <path id="Path_3362" data-name="Path 3362" class="cls-61" d="M609.75,563.783s.448,2.423.77,4.281a2.548,2.548,0,0,0,2.508,2.1h3.224a2.548,2.548,0,0,0,2.5-2.06c.381-1.952.9-4.59.9-4.59l-4.5.291" transform="translate(-336.707 -311.173)"/>
        <ellipse id="Ellipse_75" data-name="Ellipse 75" class="cls-62" cx="4.953" cy="2.132" rx="4.953" ry="2.132" transform="translate(273.038 250.241)"/>
        <ellipse id="Ellipse_76" data-name="Ellipse 76" class="cls-54" cx="3.878" cy="1.67" rx="3.878" ry="1.67" transform="translate(274.113 250.702)"/>
        <path id="Path_3363" data-name="Path 3363" class="cls-63" d="M613.165,557.652s-4.4.4-7.165-4.872C613.165,557.406,613.165,557.652,613.165,557.652Z" transform="translate(-334.637 -305.248)"/>
        <path id="Path_3364" data-name="Path 3364" class="cls-63" d="M613.165,557.652s-4.4.4-7.165-4.872C613.165,557.406,613.165,557.652,613.165,557.652Z" transform="translate(-334.637 -305.248)"/>
        <path id="Path_3365" data-name="Path 3365" class="cls-63" d="M614.308,555.2s-4.532-1.093-6.238-6.865C614.353,554.976,614.308,555.2,614.308,555.2Z" transform="translate(-335.78 -302.796)"/>
        <path id="Path_3366" data-name="Path 3366" class="cls-63" d="M615.981,553.327a11.034,11.034,0,0,1-4.881-8.387C616.075,553.135,615.981,553.327,615.981,553.327Z" transform="translate(-337.453 -300.919)"/>
        <path id="Path_3367" data-name="Path 3367" class="cls-63" d="M617.955,552.152a11.831,11.831,0,0,1-3.2-9.332C618.085,552.013,617.955,552.152,617.955,552.152Z" transform="translate(-339.427 -299.748)"/>
        <path id="Path_3368" data-name="Path 3368" class="cls-63" d="M619.677,551.776s-3.161-4.747-1.294-9.646C619.838,551.7,619.677,551.776,619.677,551.776Z" transform="translate(-341.148 -299.367)"/>
        <path id="Path_3369" data-name="Path 3369" class="cls-63" d="M621.01,552.2s-2.208-5.414.7-9.3C621.194,552.187,621.01,552.2,621.01,552.2Z" transform="translate(-342.482 -299.792)"/>
        <path id="Path_3370" data-name="Path 3370" class="cls-63" d="M621.813,553.4s-1.106-5.709,2.646-8.32C622,553.454,621.813,553.4,621.813,553.4Z" transform="translate(-343.284 -300.996)"/>
        <path id="Path_3371" data-name="Path 3371" class="cls-63" d="M622,555.31s.067-5.624,4.411-6.78C622.175,555.426,622,555.31,622,555.31Z" transform="translate(-343.472 -302.901)"/>
        <path id="Path_3372" data-name="Path 3372" class="cls-63" d="M622,557.755s1.236-5.145,5.875-4.769C622.157,557.929,622,557.755,622,557.755Z" transform="translate(-343.472 -305.351)"/>
        <path id="Path_3373" data-name="Path 3373" class="cls-12" d="M508.869,406.033v24.378l-2.329-1.343V404.69Z" transform="translate(-279.714 -223.472)"/>
        <path id="Path_3374" data-name="Path 3374" class="cls-52" d="M419.859,711.082l-9.632,5.562-9.645-5.562,1.16-2.015,8.477,4.89,8.481-4.872Zm-63.376-36.594-7.312,4.218,7.312,4.223-1.164,2.015-10.219-5.9v-.672l10.219-5.9Zm173.194-27.481v.672l-10.219,5.9-1.164-2.015,7.313-4.223-7.312-4.218,1.164-2.015Zm-55.491-32.035-1.16,2.015-8.477-4.894-8.472,4.894-1.16-2.015,9.632-5.562Z" transform="translate(-190.566 -336.52)"/>
        <path id="Path_3375" data-name="Path 3375" class="cls-64" d="M770,291.995,556.61,167.365V143.931c0-22.175,18-29.644,40.2-16.68L729.8,204.912c22.2,12.986,40.2,41.448,40.2,63.627Z" transform="translate(-307.363 -66.754)"/>
        <path id="Path_3376" data-name="Path 3376" class="cls-65" d="M751.38,296.372l13.855,8.105a40.313,40.313,0,0,0-13.855-17.554q-.922-.631-1.867-1.187c-6.515-3.8-12.207-3.6-15.283-.166L531.575,167.219c-3.076-7.03-8.768-13.882-15.279-17.679q-.954-.551-1.872-.994c-6.041-2.893-11.195-2.239-13.855,1.37l13.855,8.092v16.268l-13.855-8.092a40.334,40.334,0,0,0,13.855,17.549q.922.631,1.872,1.182c6.511,3.806,12.2,3.614,15.279.175L734.234,303.429c3.072,7.03,8.763,13.882,15.279,17.67q.949.56,1.867,1c6.045,2.893,11.195,2.239,13.855-1.366L751.38,312.64Z" transform="translate(-276.418 -81.027)"/>
        <path id="Path_3377" data-name="Path 3377" class="cls-66" d="M751.008,280.878,537.62,156.275V132.841c0-22.175,18-29.644,40.2-16.68l132.995,77.661c22.2,12.964,40.194,41.448,40.194,63.623Z" transform="translate(-296.877 -60.63)"/>
        <path id="Path_3378" data-name="Path 3378" class="cls-36" d="M753.282,221.659l-168.03-98.116a1.4,1.4,0,0,1-.672-1.066c0-.372.3-.493.672-.278l168.03,98.116a1.42,1.42,0,0,1,.672,1.066C753.954,221.753,753.649,221.878,753.282,221.659Z" transform="translate(-322.808 -67.42)"/>
        <path id="Path_3379" data-name="Path 3379" class="cls-67" d="M757.685,320.058,533.47,189.131V171.26L757.685,302.186Z" transform="translate(-294.585 -94.571)"/>
        <path id="Path_3380" data-name="Path 3380" class="cls-36" d="M751.881,322.832,549.03,204.381V202.59L751.881,321.041Z" transform="translate(-303.177 -111.871)"/>
        <path id="Path_3381" data-name="Path 3381" class="cls-52" d="M519.982,169.392c0,9.771-7.93,13.058-17.706,7.348-.631-.367-1.254-.766-1.867-1.187A40.176,40.176,0,0,1,486.55,158l13.859,8.092V149.828l-13.859-8.092c2.687-3.582,7.814-4.263,13.859-1.37.613.3,1.236.631,1.867,1C512.052,147.074,519.982,159.625,519.982,169.392Z" transform="translate(-268.676 -76.515)"/>
        <path id="Path_3382" data-name="Path 3382" class="cls-67" d="M516.248,167.211c0,9.139-6.941,12.61-15.839,8.342A40.176,40.176,0,0,1,486.55,158l13.859,8.092V149.828l-13.859-8.092c2.687-3.582,7.814-4.263,13.859-1.37C509.307,146.5,516.248,158.072,516.248,167.211Z" transform="translate(-268.676 -76.515)"/>
        <path id="Path_3383" data-name="Path 3383" class="cls-52" d="M1002.94,452.832c0,9.771,7.93,22.318,17.706,28.027.631.367,1.254.7,1.872,1,6.041,2.893,11.195,2.239,13.855-1.343l-13.855-8.092V456.132l13.855,8.092a40.347,40.347,0,0,0-13.855-17.554c-.618-.421-1.24-.819-1.872-1.187C1010.871,439.774,1002.94,443.066,1002.94,452.832Z" transform="translate(-553.829 -244.451)"/>
        <path id="Path_3384" data-name="Path 3384" class="cls-67" d="M1011.28,457.7c0,9.139,6.941,20.715,15.843,26.845,6.041,2.893,11.195,2.239,13.855-1.343l-13.855-8.092V458.821l13.855,8.092a40.346,40.346,0,0,0-13.855-17.554C1018.221,445.1,1011.28,448.562,1011.28,457.7Z" transform="translate(-558.435 -247.139)"/>
      </g>
    </g>
  </g>
</svg>
